<svg xmlns="http://www.w3.org/2000/svg" viewBox="0 0 306.6 485.64"><defs><style>.cls-1{fill:#fff;}.cls-2{fill:#13110c;}</style></defs><g id="Layer_2" data-name="Layer 2"><g id="Characters"><g id="Retro_Astronaut" data-name="Retro Astronaut"><g id="Retro_Astronaut-2" data-name="Retro Astronaut"><path id="White_Fringe" data-name="White Fringe" class="cls-1" d="M0,277.2a20.44,20.44,0,0,1,0-2.47c0-.28.05-.55.06-.83l0-.55v-.13a31.12,31.12,0,0,1,.18-3.12l.4-5a4.84,4.84,0,0,1,.09-.65l0-.28a61,61,0,0,1,2.35-9.56l1-3.54a13,13,0,0,1,.46-1.38l1.81-5a30.29,30.29,0,0,1,1.18-3l2.86-6.25c.86-1.64,1.8-3.3,2.71-4.9l.55-1c.2-.34.44-.78.69-1.27s.64-1.23,1-1.83A19.21,19.21,0,0,0,17,224a13.59,13.59,0,0,1,1.43-2.55l.66-1c.45-.65.89-1.3,1.4-2L22,216.18l.07-.14a18.91,18.91,0,0,1,1.33-2c.18-.21.35-.42.51-.64l.31-.39,1.29-1.84L25,209.76c-.43-1.11-.81-2.24-1.15-3.45l-.29-1.23a25.93,25.93,0,0,1,0-10,28.41,28.41,0,0,1,1.79-6.55L26.38,186l.05-.18c.06-.18.12-.36.17-.54a8.51,8.51,0,0,0,.25-3.12,8.25,8.25,0,0,0-.93-3l-.05-.09a7.54,7.54,0,0,0-.83-1.21c-.14-.18-.3-.35-.47-.53l-1.69-1.65c-1.27-1.24-2.59-2.53-3.83-3.82l-3.14-3.62A11.93,11.93,0,0,0,14.78,167a17.27,17.27,0,0,1-2.83-4c-.3-.51-.6-1-.92-1.54s-.8-1.31-1.31-2.22l-.08-.14-.1-.13a15.29,15.29,0,0,1-1.15-2l-.3-.73-.24-.54a78.63,78.63,0,0,1-3.11-7.42l-.39-1.16a25.41,25.41,0,0,1-1.09-4.66l-.18-1.35c-.16-1.28-.33-2.55-.53-3.8a68.41,68.41,0,0,1,1.88-26.89l0-.09,0-.09c.12-.56.44-1.6.72-2.52l.24-.76a21.06,21.06,0,0,0,.8-2.95,10.94,10.94,0,0,1,.83-2.43l.51-1.12c.37-.83.73-1.6,1.15-2.41L10,95.55l.06-.14a9.93,9.93,0,0,1,1-2c.18-.26.34-.52.51-.77l.28-.44,1.1-1.9c.34-.61.63-1.1,1-1.61l2.51-3.83L18,82.71l1.58-1.94,3.8-3.85,4.09-3.72,7.4-6.1-5-1.9-.59-.28-.57-.32-.52-.33-.52-.37-.5-.41-.41-.37-.44-.46L26,62.25l-.36-.49-.36-.57L25,60.75l-.27-.58-.23-.6L24.35,59l-.13-.53-.1-.59-.06-.55,0-.61v-.54l0-.5.07-.59.1-.54.11-.49.17-.57L24.7,53l.18-.44.18-.43.32-.62.29-.53.36-.56.16-.25.42-.57.4-.51,3-3.33L26.81,44a9.52,9.52,0,0,1-3.16-2.78,13.53,13.53,0,0,1-2.45-6.78,17.13,17.13,0,0,1,.78-7.1,11,11,0,0,1,4.29-5.82,8.25,8.25,0,0,1,4.57-1.27,8.52,8.52,0,0,1,2.26.29l.36.08c.44.11.94.23,1.36.3a7.93,7.93,0,0,0,1.07.17l.93.13a13.63,13.63,0,0,1,2.36.68,5.41,5.41,0,0,0,.61.2,7.91,7.91,0,0,1,1.35.52l.14.07.73.44a4.3,4.3,0,0,1,.53.42l.09.06a11.62,11.62,0,0,1,2.44,3.18,12.24,12.24,0,0,1,1,2.53l0,.17a8.22,8.22,0,0,1,.42,2.69v.05c0,.49-.07.92-.15,1.39a9.59,9.59,0,0,1-.52,2.14c-.08.2-.16.4-.25.59a33.94,33.94,0,0,0-1,3.33c-.36,1.15-1.53.65-.14,1.35.43.22.84.72,1.23.46a7.46,7.46,0,0,1,3.54-1.25,14.17,14.17,0,0,1,6.11.36,7.83,7.83,0,0,1,3.21,2,7.06,7.06,0,0,1,1.81,3.28,8.22,8.22,0,0,1,.23,1.8c0,.55,0,1.14,0,1.77a11.62,11.62,0,0,1-.18,1.81L59.26,56l4.35-.82c1.3-.24,2.57-.45,3.77-.61L71,54.11a24.12,24.12,0,0,0,3.12-.38,11.86,11.86,0,0,1,2.92-.25h.07c.55,0,1.1,0,1.65.07.7,0,1.4.08,2.16.08l2.86.15.46,0a16.39,16.39,0,0,1,1.84.15l.29,0,.66.11a4.71,4.71,0,0,1,.5.08l.17,0c2.67.38,5.51.82,8.23,1.47l1.24.3a51.62,51.62,0,0,1,9.36,3.67l.18.09c.67.3,1.33.63,2,1l1.2.61c.66.32,1.29.68,1.91,1L113,63c1.46.77,2.86,1.64,4.35,2.57l1.64,1A83.07,83.07,0,0,1,130,75.06c.55.54,1.45,1.37,2.34,2.17l.43.4A19.67,19.67,0,0,0,135,79.77,11.74,11.74,0,0,1,137.12,82c.41.47.81,1,1.23,1.58s.7.95,1.06,1.4l.79,1,.86,1.2.07.08a15.17,15.17,0,0,1,1.44,2c.16.3.31.57.47.84l.31.54a76.11,76.11,0,0,1,4,7.2l.56,1.22a46.59,46.59,0,0,1,2.9,9.62l0,.17c1,4.58,1.49,9.28,2.11,13.93a1.13,1.13,0,0,0,2.18.24c2.73-7.33,4-14.81,5.82-22.38.44-1.77.88-3.59,1.16-5.43a61.76,61.76,0,0,0,.5-13.9l-.36-3.36-.53-3.35L161,70.93c-.11-.4-.21-.8-.31-1.21-.17-.66-.33-1.33-.53-2l0-.1-.22-.6a16.25,16.25,0,0,0-1.17-2.72,10.52,10.52,0,0,0-1.36-2.13l-.13-.19-.23-.21c-.39-.35-.73-.71-1.09-1.06a21.53,21.53,0,0,0-3.75-3.21l-.38-.27-.64-.45-1.24-1c-.34-.28-.71-.6-1.09-1a12.1,12.1,0,0,1-.77-1l-.16-.2a5.86,5.86,0,0,1-.39-.64l-.25-.45-.31-.51-.54-1-.33-.71a11.66,11.66,0,0,1-.6-1.46l-.75-2.18-.53-2a10,10,0,0,1,.13-6c.56-1.62.71-3.22,1.37-4.79a40.63,40.63,0,0,1,2.71-4.52c1.26-2.13,3.12-2.65,5.15-3.77l-.82-3,.4.76c-.24-1.23-.55-2.44-.77-3.67-.05-.26-.08-.54-.13-.92a7.37,7.37,0,0,1-.06-.9c0-.21,0-.36,0-.51l0-1.16a20.91,20.91,0,0,1,1.19-6.9c.07-.17.14-.35.21-.55a5.8,5.8,0,0,1,.42-.94l.65-1.23c.06-.1.14-.2.21-.3l.28-.39.61-.84.25-.26.4-.41c.35-.36.61-.63.73-.77l-.06.07a7.29,7.29,0,0,1,2.74-1.86l1-.41.37-.1,2.37-.64,2.89-.49A18.77,18.77,0,0,1,169.12,0h.13c.32,0,.62,0,.93,0l3.43.11,4.25.41h.89a7.24,7.24,0,0,1,.81.12l.53.09a11.37,11.37,0,0,1,2.35.8l.1,0,.1,0a12.41,12.41,0,0,1,1.88,1.08l.86.57L187,4.67a15,15,0,0,1,1.34,1.24l1.76,1.74,1.55,1.87a21.7,21.7,0,0,1,1.71,2.23l2,3,2.6,4.59,2.27,4.88c.34.71.63,1.48.93,2.29l2.1,5.65.64,1.92A21.15,21.15,0,0,0,205,36.94a12.36,12.36,0,0,1,.87,2.13l.37,1.43c.21,1,.43,2,.71,3l.75,2.74.05.13a21.19,21.19,0,0,1,.73,2.42c.05.24.09.46.13.69l.1.57c.66,2.9,2.24,9.37,2.24,9.37a19,19,0,0,1,.38,2.08c.12.88.22,1.77.29,2.67l.42,5.32a209.12,209.12,0,0,1,1,27.9c0,.9-.05,2.37-.06,3.66v.06a22.59,22.59,0,0,0,0,3.09,16.77,16.77,0,0,1-.13,4.2c-.09.85-.19,1.73-.22,2.54l-.22,2.83v.14a22.71,22.71,0,0,1-.14,2.46c-.05.27-.09.53-.13.79l-.08.51L211,127.19c-.21,1.59-.58,3.23-1,4.88-.18.76-.38,1.51-.58,2.25-.26,1-.51,1.9-.72,2.81a110.32,110.32,0,0,1-9.62,26.2c-.11.2-.23.44-.36.7s-.26.52-.41.79l-1,1.8a20.32,20.32,0,0,0-1.43,2.83,10,10,0,0,1-1.25,2.18l-1.07,1.51c-.43.61-.86,1.23-1.35,1.85l-1.77,2.39a13.07,13.07,0,0,1-1.38,1.92c-.23.23-.45.45-.66.68l-.4.42c-.39.44-.77.88-1.15,1.33-.53.62-1.07,1.25-1.57,1.8l-3.86,3.92c-.57.5-1.19,1-1.91,1.59l-2.16,1.7,2.08,2.8A164.74,164.74,0,0,1,194.78,217l1.72,3.23s1.1,2.13,1.4,2.58l.07.1a19.11,19.11,0,0,1,2,4.4c.23.64.46,1.28.69,1.84l.31.83c.21.53.41,1.06.62,1.7l0,.13.06.14a15.25,15.25,0,0,1,.81,2.34c.05.24.11.47.16.7a4.7,4.7,0,0,1,.12.51l0,.1,0,.1c.35,1.31.64,2.56.88,3.8.46,4.79,6.63,5.81,6.63,5.81.5.18,3.27,1.18,4.16,1.48a171.17,171.17,0,0,1,25.81,10.75c1,.51,5.31,2.78,5.8,3l.17.07a20.16,20.16,0,0,1,4.39,2.62c.48.34,1,.68,1.48,1,.71.46,1.41.95,2,1.44l.22.15.12.07a13.74,13.74,0,0,1,2,1.44l.66.6.4.35a52.78,52.78,0,0,1,6,5.91l.15.17.5.62.26.37.5.82.87,1.84.31.59,1,2.26.29.8,1,.79.39.69v.26l0,.22.09.54.26.54.14.4.17.46.33.77.58,1.85.52,2.46.3,1.87.13,1.14a48.79,48.79,0,0,1-.42,9.2l-.07.7a175.66,175.66,0,0,1-4.79,26.6c-.29,1.06-1.38,5.68-1.42,6.51a14.61,14.61,0,0,1-.9,3.78c-.26.81-.53,1.65-.74,2.5l-1.23,4.73,3.41.23c1.78.12,3.38.27,4.91.45l.61.08.57.08a45.89,45.89,0,0,1,8.9,2.4l.61.21a46.81,46.81,0,0,1,12.24,6.12,30.24,30.24,0,0,1,5.1,4.59,28.12,28.12,0,0,1,2,2.51l.09.12.31.49a19.52,19.52,0,0,1,1.36,2.37l.35.68c.13.25.28.52.44.9l.79,1.81c.17.47.33.92.47,1.29.3.87.43,1.21.55,1.47a13.71,13.71,0,0,1,.58,1.78l.06.28.1.78.2,1.93.05.19c.11.42.19.79.27,1.16l.08.37c.18.8.33,1.64.45,2.58l0,.14,0,.13a11.59,11.59,0,0,1,.26,2.42l0,1.37a30.79,30.79,0,0,1-1,8.06l-.4,1.25a21.58,21.58,0,0,1-5.55,8.33,30.44,30.44,0,0,1-5.34,4.23l-.26.15c-1,.56-1.84,1.09-2.73,1.5l-.14.06a30.15,30.15,0,0,1-3,1.31l-.09,0a51.81,51.81,0,0,1-13.15,3.14l-.78.11-3.33.19a18.59,18.59,0,0,0-2.48.2,10.59,10.59,0,0,1-2.22.2c-.68,0-1.37,0-2.06-.07s-1.54-.07-2.27-.07l-2.76,0h-.15c-.31,0-.64,0-1,0s-.93,0-1.4,0l-1.34-.12c-2.45-.08-9.24-.46-9.24-.46a56.13,56.13,0,0,1-7.51-1.14l-2.19-.42A109.59,109.59,0,0,1,223,409.94a58.58,58.58,0,0,1-12.42-5.37l-.12-.06c-.4-.22-1.09-.64-1.75-1.05l-1.26-.77-1.34-.9a8.92,8.92,0,0,0-1.18-.74,6.58,6.58,0,0,1-.94-.61L200.8,398s-1.81,5.38-2,5.87a13.74,13.74,0,0,0-.47,3.83,6.77,6.77,0,0,0,.57,2.61l.41.89.87.45a58.32,58.32,0,0,1,5.7,3.52c.8.54,1.59,1.08,2.38,1.59,4.43,2.85,8,5.32,11.14,7.74a59.05,59.05,0,0,1,9.89,9.23l.21.27a32.21,32.21,0,0,1,2,2.65l.5.8s.72,1.34.74,1.39l.08.2.11.18a5.74,5.74,0,0,1,.7,3.12l-.09.48-.12.63.26,2.45c.08.83.15,1.68.18,2.56v.16l0,.15a13.91,13.91,0,0,1,.07,2.4c0,.27-.05.53-.07.79s-.05.59-.05.59a46,46,0,0,1-1.14,8l-.09.36c-.06.26-.12.52-.2.77l0,.1a27.21,27.21,0,0,1-4.6,8.83,31.54,31.54,0,0,1-10.26,9,41,41,0,0,1-12.85,4.46c-1.63.33-5.65,1-6,1l-.21,0-.19.06a9.89,9.89,0,0,1-1.4.28l-.76.09h-.29l-.54,0c-.62,0-1.23-.11-1.84-.18s-1.24-.14-1.88-.19-1.41-.12-2.11-.2l-.56-.06h-.15a15,15,0,0,1-2.34-.22l-1.38-.27c-2.66-.39-5.33-.84-7.91-1.35l-1.24-.25a49.18,49.18,0,0,1-7.53-2.35l-1.82-.67c-9.76-3.5-17.51-7.75-23.65-12.94-.67-.58-1.79-1.53-2.82-2.37a21.54,21.54,0,0,0-2.24-1.94,17,17,0,0,1-3.46-3.63l-1-1.25-.07-.08c-.53-.59-1-1.28-1.53-1.95l-.06-.09-.08-.08a15,15,0,0,1-1.45-1.89c-.14-.26-.28-.51-.43-.76l-.26-.44-1.14-1.77-2-3.53a21.57,21.57,0,0,1-.8-2c-.08-.21-.15-.43-.21-.65l-.15-.49c-1-3.18-1-6.6-.93-9.88a53.65,53.65,0,0,1,2-13.5l.46-1.64c.1-.34.22-.67.33-1,0,0,.47-1.33.61-1.74.23-.69.46-1.34.74-2,1.16-2.55,3.1-4.56,4.27-7.08,2.21-4.74,3.48-10.63,4.86-15.72,1.22-4.51-.21-9.12.19-13.78.19-2.15.78-4.24.62-6.31s2-3.67,1-5.53-6.83-4.32-8.67-5.7A41.79,41.79,0,0,0,123,356c-1.29-.47-4.14-1.64-5.27-2.12l-5-2.14,1.17,5.36a32.58,32.58,0,0,1,.62,3.87l0,.33c0,.3,0,.59.06,1a18.11,18.11,0,0,1-2.47,9.61c-.14.22-.26.45-.39.69a7.86,7.86,0,0,1-.48.78L109.9,375a5.62,5.62,0,0,1-.61.64l-.87.86a10.16,10.16,0,0,1-.75.72l-1.76,1.32a6.12,6.12,0,0,1-.89.62l-2.52,1.43-.18.09-.56.22a33.19,33.19,0,0,1-6.64,1.69,37.27,37.27,0,0,1-5.85.45L86.73,383l-2-.09L82,382.69l-.46,0a17,17,0,0,1-4.79-1c-.47-.15-.94-.3-1.41-.43-.71-.21-1.54-.47-2.33-.77l-.24-.09-.13,0c-.42-.11-.81-.23-1.07-.32s-.8-.34-1.2-.52l-.61-.31-.45-.22-.08,0-.09,0a68.33,68.33,0,0,1-7-3.83L61,374.27a40.36,40.36,0,0,1-6.68-5.9l-.83-.85c-.76-.77-1.48-1.5-2.16-2.28l-.69-.77c-.55-.6-1.07-1.17-1.56-1.8l-1.75-2.12-.43-.3c-.87-.62-1.73-1.26-2.73-2a102.32,102.32,0,0,1-10.07-8.92c-.79-.82-2.11-2.08-2.6-2.55l-.24-.23a19.27,19.27,0,0,0-1.95-1.84,15.81,15.81,0,0,1-2.88-3c-.49-.62-1-1.25-1.49-1.8l-1.8-2.12-.11-.1a12.82,12.82,0,0,1-1.49-1.74c-.16-.24-.32-.47-.49-.7l-.3-.42-.06-.09c-1.12-1.38-2.21-2.86-3.26-4.29-.51-.7-1-1.4-1.55-2.09l-.64-1a35.78,35.78,0,0,1-2.48-4.11l-2.3-4.55a87.8,87.8,0,0,1-8.7-25.6l-.32-1.64-.27-1.89a22.75,22.75,0,0,0-.52-3,9.56,9.56,0,0,1-.32-1.35,8.6,8.6,0,0,1-.07-1.1s0-1.14,0-1.53c0-.86,0-1.74-.06-2.63,0,0-.08-1.37-.09-1.43l0-1.16Z"/><path id="White" class="cls-1" d="M13.3,271.05c.72-14.67,7.84-28.51,16-40.45a134.37,134.37,0,0,1,14.22-17.49c-2.42-3.55-5-7.3-6-11.21-1.55-5.91,1.44-9.61,5.14-13.65,2.54-2.78,4.5-5.24,7.44-6.55a46.39,46.39,0,0,1-13.91-10.35,46.09,46.09,0,0,1-12.72-19.79,46.33,46.33,0,0,1-5.3-23.7l2.2-16.35A61.36,61.36,0,0,1,36.15,84.38l10.62-8.21a19.23,19.23,0,0,1-2-6,126.87,126.87,0,0,0-3.32-12.6,21.39,21.39,0,0,1-7.83.77c-2.76-.25-4.35-4.08-1.52-5.59,2.35-1.26,4.75-2.42,7.17-3.51a12.17,12.17,0,0,1-1.2-3c-.18-.24-.34-.49-.52-.72a.42.42,0,0,1,0-.51l-2.19-4.3L35,40.12c-.12-.15-.22-.3-.33-.44a7.13,7.13,0,0,1-1.57.17c-8.37,0-8.38-13,0-13,7,0,8.16,9.21,3.35,12.12.8,1.31,1.56,2.64,2.35,4l.31.53A5.17,5.17,0,0,1,42,47.13l.59.72c2.07-.85,4.16-1.67,6.28-2.41,3.07-1.07,4.68,2.93,2.92,5a25.34,25.34,0,0,1-4.64,4.27c-.06.09-.11.17-.18.26A126.87,126.87,0,0,0,58.62,70.06a61.48,61.48,0,0,1,21-3.7h.82a46.33,46.33,0,0,1,23.7,5.3,46.09,46.09,0,0,1,19.79,12.72,46,46,0,0,1,12.72,19.79A46.31,46.31,0,0,1,142,127.86l-2.19,16.35c-.18.64-.39,1.28-.59,1.91.17.35.33.7.49,1.06a73.49,73.49,0,0,0,4,7.8,8.43,8.43,0,0,1,.81,2l13.23-11.43q2.56-3.89,5-7.79c7-11.3,11-24.15,12.77-37.28A154.28,154.28,0,0,0,176.69,80c0-2.68-.08-5.36-.18-8-5.43-11.57-11.18-22.15-20.32-31.3-4.09-4.11,2.27-10.48,6.37-6.37,1.38,1.38,2.68,2.8,3.93,4.24a37.19,37.19,0,0,0,1.71-5.13c.64-3.07-.51-5.34-1.08-8.28a12.34,12.34,0,0,1-.2-3C164.7,14.48,176.1,8,181.29,14.29c9.66,11.8,15.47,26.4,15,41.8,0,1.33-.11,2.7-.28,4,3.69,18,4.86,36.45,1.55,54.94a98.36,98.36,0,0,1-2.7,11.37c-1.18,3.88-3.18,7.72-3.94,11.71-.67,3.51-.26,7.16-.92,10.71a30.07,30.07,0,0,1-4.5,10.66A118.81,118.81,0,0,1,163,185.17a196.55,196.55,0,0,1,18.49,37.61c.07.16.16.31.23.47,2.32,4.76,4.44,9.6,6.44,14.49s3.35,10.41,6.84,14.42c5.27,6,14.49,7.84,21.75,10.28,9.49,3.2,18.66,7.3,25.31,15.07,7.2,8.4,11.07,18.83,12.38,29.72,1.47,12.21-.75,24.65-3.83,36.45-1.12,4.29-4.31,10.74-3.35,15.29.77,3.67,5.49,4.58,8.62,5,11.57,1.51,25.33-.24,32.28,11.6,6.58,11.21-3.44,27.62-16.86,23.51-.15,0-.29-.1-.43-.15a67,67,0,0,1-15.69.89,250.25,250.25,0,0,1-28.8-2.56c-8.14-1.21-15.53-4.37-19.64-12s-3.42-16.44-1.29-24.46c2.28-8.6,4.66-16.93,5.57-25.82.52-5,.82-10,1.07-15,.17-3.48,1-7.92-1.08-11-3.86-5.58-14.14-7.34-20.19-8.22a58.2,58.2,0,0,0-20.42.59c.84,7.87,4.9,16.4,8.53,22.65,5.59,9.63,12.69,18.3,15.91,29.15s1.06,20.49-3.77,30.4c-4.51,9.25-6.44,18.81-7.35,29-.23,2.56-.31,5.15-.61,7.69-.06.48-.08.84-.1,1.11a7.87,7.87,0,0,0,1.87,1.38c5.05,3.64,10.55,6.68,15.63,10.28,8.05,5.69,15.24,15.52,8.86,25.32-6.7,10.3-19.67,8.38-29.73,5.28a100.83,100.83,0,0,1-28.14-13.53c-5-3.5-8.54-7.55-9.21-13.84-.61-5.77.76-11.87,1.54-17.58q2.7-19.74,7.14-39.2a10.26,10.26,0,0,1,.47-1.48c-.36-6.9-1.66-13.65-5-19.59a54.84,54.84,0,0,0-8.23-10.62,48.91,48.91,0,0,1-6.86-7.48,44.4,44.4,0,0,1-3.9-5.33c-1.5-1-3-2.05-4.2-3.05-6.49-5.22-10.63-12-15.56-18.57a25.48,25.48,0,0,0-7.06-6.94c-3.71-2.21-5.89-1.14-9.88-.43-11,2-15.83-5.91-20.76-14.22S59.9,275.18,55.21,266.69a55.39,55.39,0,0,1-5.67-13.78,57.57,57.57,0,0,0-10,19c-3.8,13,3.68,34.44,12,45.41,3.36,4.4,6.29,7.86,9.54,9.54,4.36,2.25,6.61,2.61,15.88,5.1a2.6,2.6,0,0,1,.73.4l6.32,1.24A31.58,31.58,0,0,1,89.5,335l2.41.55c1.62.39,3.59.77,4.77,2a3.79,3.79,0,0,1-.14,5.27c-1.36,1.37-3.31,1.45-5.12,1.63-2.28.22-4.58.33-6.88.35.24.42.51.83.77,1.22a16.82,16.82,0,0,0,2.68,3c1.44.74,2.6,2.64,4.05,3.31,3.79,1.75,5.87,9.38,4.31,12.92-1.84,4.18-6.91,4.8-11.23,4.15-6.46-1-14.87-6-19.39-10.77-17.57-11.17-31.54-26.91-42-44.92A78.91,78.91,0,0,1,13.3,271.05Z"/><path class="cls-2" d="M11.87,292.12a6.15,6.15,0,0,0,.29,1.62l.11.3c.08.37.42,1.9.45,2.06l.07.27a13.94,13.94,0,0,1,.63,2.59,8.23,8.23,0,0,0,.49,1.76c.34.89.71,1.79,1.15,2.73l.43.88a22.28,22.28,0,0,1,1,2.4c.21.56.43,1.11.65,1.67h0c.3,1,.5,2.2.58,2.36a32,32,0,0,0,1.29,3.34c.19.21,1.42,2.92,2,4s1,1.9,1.54,2.82l1.77,2.83h0l.11.17c.08.12.17.25.27.38.84,1.2,1.63,2.42,2.51,3.59,1.37,1.93,2.83,3.79,4.33,5.63.78.9,1.52,1.82,2.31,2.7l2.4,2.64c1.18,1.21,2.11,2.65,3.35,3.81A24,24,0,0,0,41.76,345,20.77,20.77,0,0,1,44,346.49a2.16,2.16,0,0,0,2.08.38l2.62,2.45c1.45,1.35,2.93,2.69,4.42,4q4.47,4,9.15,7.67c1.56,1.23,3.13,2.46,4.72,3.65s3.27,2.4,5,3.52a33.48,33.48,0,0,0,11.87,5.07,19.31,19.31,0,0,0,7,0l1.74-.42,1.67-.59a11.59,11.59,0,0,0,3.41-2.07,10.53,10.53,0,0,0,2.55-3.35,9.22,9.22,0,0,0-.26-8.58,15.3,15.3,0,0,0-2.24-3c-.78-.83-1.57-1.55-2.27-2.21l-6.2-5.82s0-.05,0-.08h.06l4.45-.19a15,15,0,0,0,1.86.15,7.81,7.81,0,0,0,1.23-.06,9.84,9.84,0,0,0,1.34-.21,4.86,4.86,0,0,0,1.24-.46l.57-.3.52-.39a5.61,5.61,0,0,0,1.91-4.7c0-.3,0-.58,0-.86.06,0,.06,0,0,0l0-.49c0-.06,0,0,0-.05a4,4,0,0,0-.17-1.56,3.39,3.39,0,0,0-.25-.6,3.34,3.34,0,0,0-.29-.49,5.39,5.39,0,0,0-1.77-1.57,10.29,10.29,0,0,0-1.2-.6,30.55,30.55,0,0,0-4-1.31c-2.5-.69-4.94-1.23-7.37-1.78-4.84-1.08-9.63-2.12-14.29-3.38-1.84-.49-3.66-1.05-5.43-1.7-.89-.33-1.76-.67-2.61-1a6.42,6.42,0,0,1-.6-.27l-.24-.13c-.5-.28-1-.58-1.46-.87a8.24,8.24,0,0,0-1.51-3.05c-2.34-2.43-4.65-4.25-6.17-7a25.19,25.19,0,0,0-2.49-2.94,44.54,44.54,0,0,1-3.51-5.3,47.92,47.92,0,0,1-2.74-5.67c-1-2.54-1.55-5.16-2.46-7.68a6.85,6.85,0,0,1-.42-2.24,10.71,10.71,0,0,1,.15-2.17,17.42,17.42,0,0,0-.27-4.7q-.06-.42-.09-.84a12.3,12.3,0,0,1,0-2.27,40.35,40.35,0,0,1,3.06-11.47c.72-1.66,1.21-2.44,2-4.05a24.53,24.53,0,0,0,.94-2.41c.1.34.19.68.27,1,.22,1.12,1.12,2,1.65,3.08,1.79,3.59,3.13,6.95,4.7,10.68,1,2.36,1.75,4.88,3.26,7a9.7,9.7,0,0,1,1.51,4.07,9.11,9.11,0,0,0,2.33,4l.52.65a15,15,0,0,1,1.32,1.79c.25.44.53.87.79,1.3h0c.37.77.64,1.83.72,2a20.1,20.1,0,0,0,1.47,2.66c.19.15,1.55,2.25,2.12,3.1,1,1.48,2.09,2.88,3.22,4.26l.8,1.17.22.08.15.19,1.49.44.12.05a5.45,5.45,0,0,0,.76.21c1.2.35,2.4.66,3.6,1a50.71,50.71,0,0,0,13,1.66c.85,0,1.72,0,2.6,0a14.78,14.78,0,0,0,2.77-.31c.49-.12,1.13-.21,1.78-.32a9.32,9.32,0,0,0,1-.3l.64,1.14a81.11,81.11,0,0,0,5.32,9.67l0,0a80.15,80.15,0,0,0,4.84,6.73c.63.81,1.3,1.6,2,2.38l3.31,3.75c.71.81,5.59,6.82,6.1,7.42.93,1.12,1.89,2.22,2.91,3.26l9.07,9.41c.32.38.64.72,1,1.11l.61.63A14.19,14.19,0,0,0,139,359l.06.06c.42.41.87.79,1.3,1.18s.63.55,1,.82l1.25,1c.19.19.45.31.57.55l.23.79c.48,1.69.86,3.37,1.34,4.95a10.09,10.09,0,0,1-.07,3c-.23,1.48-.52,3.17-.65,4.17a34.63,34.63,0,0,0-.13,5.05c0,.46,0,.9.09,1.34l.12,1.17c.06.65.19,1.32.28,2a4.84,4.84,0,0,1,0,1.52c0,.51-.12,1-.18,1.52-.14,1-.32,2-.52,3-.42,2.06-1,4.36-1.6,6.6a148.44,148.44,0,0,0-3.57,14.52,47.34,47.34,0,0,1-1.62,6.24l-.53,1.83c-.19.65-.37,1.32-.54,2-.33,1.33-.61,2.66-.83,4-.1.63-.21,1.28-.3,1.92a31,31,0,0,0,.41,12.68,16.87,16.87,0,0,0,.51,1.91,16.24,16.24,0,0,0,2,4l0,.1a26,26,0,0,0,2.22,3.36,25.11,25.11,0,0,0,1.85,2.14c.68.66,1.38,1.3,2.08,1.94a19.14,19.14,0,0,0,2.24,1.77,16,16,0,0,0,2.44,1.47c.24.11,1.69,1.09,3.36,2.18l4.49,2.85a87.92,87.92,0,0,0,17.86,9.07l2.41.86,3.72,1.1,3.83.87c.88.15,4,.59,4,.59l1.37.08c.91,0,1.82.11,2.74.14l2.74-.13a50.55,50.55,0,0,0,7.85-1.26,25.14,25.14,0,0,0,7.72-2.93,16.7,16.7,0,0,0,1.86-1.2,17.57,17.57,0,0,0,4.94-5.26c.32-.54.61-1.09.91-1.63s.45-1.13.66-1.7c.1-.28.22-.56.3-.85l.59-2.55a32.16,32.16,0,0,0-.8-12.12,22.43,22.43,0,0,0-2.31-6.22,14.37,14.37,0,0,0-4-4.62c-2.17-1.53-3.62-3.32-5.58-4.51a14.27,14.27,0,0,1-2.48-2.07,15.27,15.27,0,0,0-2.71-2.2c-2.4-1.42-4.83-2.24-6.92-3.33a24.19,24.19,0,0,1-2.77-1.68c-.41-.29-.83-.58-1.19-.87l-.9-.69a.92.92,0,0,0,0-.16q.66-2.92,1.34-5.86l0,0c.67-2.95,1.34-5.9,2.09-8.85.11-.43.24-.86.37-1.3,0-.17,1-3.15,1-3.2a21.5,21.5,0,0,0,.82-3.46l.17-1c.33-2.19.71-4.38,1.11-6.57.1-.33.17-.66.29-1a9.51,9.51,0,0,0,.3-2.34l.36-2.14c.15-1,.48-2.07.7-3.1.09.88.21,1.76.35,2.64l.26,1.81a17.15,17.15,0,0,0,.67,2.43,14.55,14.55,0,0,0,2.43,4.37,18.32,18.32,0,0,0,6.79,5.28c.56.27,1.12.55,1.67.78,1.82.77,3.6,1.39,5.27,2s3.44,1.2,5.2,1.76c.54.2,1.07.37,1.62.6a22.57,22.57,0,0,0,3.81.9l.09,0c1.14.25,2.28.55,3.41.75,3.21.65,6.43,1.74,9.61,1.48.44,0,5.88.43,8.1.65,3,.32,6.05.53,9.06.7l4.5.22c1.49.06,2.95.13,4.55.16a59.87,59.87,0,0,0,9.73-.53,39.41,39.41,0,0,0,5-1.05c.83-.23,1.67-.48,2.49-.79a23.08,23.08,0,0,0,2.62-1.14,21.57,21.57,0,0,0,6.92-5.33A16.92,16.92,0,0,0,296.7,390a17.27,17.27,0,0,0,.23-2.14,24.15,24.15,0,0,0-2.5-11.82A30,30,0,0,0,288,366.6c-2.81-2.78-6.48-5.29-10.07-5.65-2.46-.27-4.41-1.17-6.53-1.3s-3.85-1.25-5.72-1.55c-2.35-.37-4.66-.33-6.81-.66a42,42,0,0,1-5.55-1.41,39.93,39.93,0,0,1,2.21-8.47c.7-1.71.74-3.69,1.16-5.56,1.43-6.41,3-12.18,4.12-19,.7-4.26,1.38-8.63.86-13.06a49,49,0,0,1-.17-7.43,18.73,18.73,0,0,0-1.91-7.84l-.56-1.31c-.51-1.18-1.09-2.32-1.54-3.5l-1-2.27c-.33-.76-.71-1.45-1.06-2.17-.68-1.43-1.55-2.91-2.32-4.37-.39-.73-.91-1.42-1.37-2.13s-.92-1.42-1.43-2.1l-1.58-2a21.58,21.58,0,0,0-1.63-1.93c-1-1.09-1.76-2-2.56-2.79s-1.62-1.57-2.74-2.57a46,46,0,0,0-5.36-3.28,22.32,22.32,0,0,1-2.17-1.16c-.63-.36-1.19-.68-1.71-1a28.1,28.1,0,0,0-3.19-1.93,94.11,94.11,0,0,0-15.66-6.31c-1.5-.45-2.94-.93-4.36-1.49l-3.71-1.47c-.76-.3-1.52-.58-2.28-.86q-2.28-.83-4.56-1.58c-.77-.26-1.54-.47-2.29-.76a5.38,5.38,0,0,1-2-1.35,5.47,5.47,0,0,1-1.22-2.08,16.13,16.13,0,0,1-.41-2.39c-.23-1.61-.53-3.2-.87-4.78a6.06,6.06,0,0,0-.36-1.82l-.13-.32c-.11-.41-.25-1.06-.4-1.6s-.28-1-.29-1a27.75,27.75,0,0,1-1-3.57,20.06,20.06,0,0,0-.78-2.41c-.48-1.23-1.05-2.44-1.7-3.72l-.6-1.2c-.52-1.09-1.07-2.16-1.54-3.26-.3-.77-.63-1.52-1-2.28h0c-.43-1.32-.86-3-1-3.19-.26-.56-1.46-4.06-1.86-4.54-.24-.29-2-4-2.74-5.43-1.34-2.59-2.84-5.1-4.3-7.62,0-.06-4.09-6.52-4.09-6.52a8.67,8.67,0,0,0,1.66-.58,9.46,9.46,0,0,0,3.31-2.35c2.93-3.6,4.68-7.11,7.43-10.38,1.15-1.29,1.67-3.08,2.51-4.61.72-1.31,3.34-6.42,4-7.68l1.84-3.82,1.78-4c1.43-3.45,3.05-6.8,3.83-10.45A25.11,25.11,0,0,1,198.9,139a16.15,16.15,0,0,0,1-3.13c.22-1.06.34-2.16.5-3.33l.16-1.16c.12-1,.25-2.1.47-3.13.14-.71.27-1.42.4-2.12h0c.28-1.18.79-2.59.83-2.8.08-.54.83-3.68.8-4.23,0-.33.47-3.87.6-5.31.29-2.56.41-5.13.49-7.7,0,0,.07-4.53.06-6.18,0-2.83-.06-5.66-.19-8.48s-.32-5.65-.56-8.46c-.15-2-.15-4-.36-6-.13-1-.1-2.58-.29-3.67a29.5,29.5,0,0,1-.75-3.13c0-.06,0-.12,0-.18a2.34,2.34,0,0,0-.25-1,5,5,0,0,0-2-2.09,3.68,3.68,0,0,0,.82-2.82l-.36-2.65-.45-4.81c-.23-2.08-.48-4.16-.8-6.24a99.49,99.49,0,0,0-6.68-24.46A64.58,64.58,0,0,0,186,14.59a23.13,23.13,0,0,0-4.93-5.22,13.05,13.05,0,0,0-3.72-1.91,10.8,10.8,0,0,0-4.49-.38,13.59,13.59,0,0,0-2.16.49,11.4,11.4,0,0,0-2,.93,12.25,12.25,0,0,0-3.26,2.84,15.67,15.67,0,0,0-3,7.3,23.36,23.36,0,0,0,.16,7.21c.18,1.13.41,2.21.65,3.25l.57,2.3v0s0,.06,0,0l0,0-.39-.27-.49-.33a11.44,11.44,0,0,0-3.39-1.51,4.83,4.83,0,0,0-.85-.12l-.42,0-.42,0a6,6,0,0,0-.85.11c-.26.1-.55.15-.81.27a6.27,6.27,0,0,0-2.68,2.09,9.38,9.38,0,0,0-1.52,3.24,10,10,0,0,0-.28,1.58,10.76,10.76,0,0,0,0,1.61,7.88,7.88,0,0,0,1.1,3.19,15.48,15.48,0,0,0,1.35,1.92c.87,1.08,1.77,2,2.22,2.67,2.87,4.07,5.76,8,8.3,12a49,49,0,0,1,2.71,4.77c.42.82.77,1.64,1.14,2.47a4.89,4.89,0,0,1,.22.61l.09.27c.24.73.38,1.48.58,2.19a3.71,3.71,0,0,0,1.6,2.47c0,3.74.8,7.6.72,11.45-.06,2.85-.29,5.68-.52,8.51h0c-.33,4.23-.79,8.45-1.49,12.59h0c-.14.86-.32,1.72-.51,2.58l-.12.49c-.61,2.64-1.36,5.28-2,7.89l-.32,1.31a68.82,68.82,0,0,1-2.4,7.75c-.45,1.28-1,2.5-1.52,3.74s-1.12,2.43-1.72,3.61c-1.2,2.32-3,4.32-3.92,6.68a8.72,8.72,0,0,1-1.34,2.11,18.2,18.2,0,0,0-1.54,1.87,5.61,5.61,0,0,1-1.73,1.54,17.19,17.19,0,0,0-1.94,1.36c-1.46,1.26-2.7,2.75-4.19,4l-.26.2-.06-.18a28.3,28.3,0,0,1-1.43-4.37q-.1-.52-.18-1l-.06-.46a1.73,1.73,0,0,0-.15-.2,2.22,2.22,0,0,1,.08-.69c0-.11,0-.21.09-.32l.05-.15s0-.09.06-.26c.12-.53.23-1.1.36-1.76a44.42,44.42,0,0,0,.23-5.66,23.8,23.8,0,0,1,0-4.07c0-1.14.17-2.18.12-3.43a54.74,54.74,0,0,0-3-15.52c-.27-.7-.5-1.39-.72-2.09l-.7-2.08c-.42-1.39-.91-2.76-1.42-4.14a55.85,55.85,0,0,0-5.81-11.16l-1.82-2.59-2-2.47c-1.33-1.64-2.77-3.18-4.25-4.68a8.12,8.12,0,0,0-1.49-1.54l-.34-.24c-.36-.34-.93-.85-1.42-1.28l-.91-.78A26.77,26.77,0,0,1,118.75,75a12.45,12.45,0,0,0-1.92-1.4,31.08,31.08,0,0,0-3.4-1.82l-1.15-.53c-1-.47-2.07-.93-3.07-1.46a81.43,81.43,0,0,0-7.94-3.62c-2.68-1.08-5.43-2-8.24-2.89a56,56,0,0,0-6.48-1.69,16.94,16.94,0,0,0-2.86-.17c-1.07,0-2.15.05-2.89.06-3.4.34-5.09-.09-7.64.18a51,51,0,0,0-13,3.17l-1.61.64c-.25-.35-.5-.71-.79-1.1a.17.17,0,0,1,0,0l-1.2-1.6-.3-.42-.45-.71a19.27,19.27,0,0,1-2.67-3.68,16.06,16.06,0,0,0-1.69-2.48c.21-.13.42-.27.61-.41a16.19,16.19,0,0,0,2.2-2,11.7,11.7,0,0,0,1.88-2.58,7.61,7.61,0,0,0,.33-.73,5.15,5.15,0,0,0,.26-1,4.59,4.59,0,0,0,0-1.35,4.13,4.13,0,0,0-.6-1.58,4.19,4.19,0,0,0-1.61-1.41A6,6,0,0,0,53,43.85a11.39,11.39,0,0,0-2.53-.17c-1.52,0-2.8.28-3.72.39a9.9,9.9,0,0,0-3,.8l-.59-.79c-1.23-1.64-2.76-3.71-3.46-4.92,0,0,0,0,0,0a9.13,9.13,0,0,0,1-1.31,7.58,7.58,0,0,0,1.09-3.42,9.7,9.7,0,0,0-.39-3.5,9.34,9.34,0,0,0-2.52-4.16,8.63,8.63,0,0,0-2.12-1.44,7.47,7.47,0,0,0-2.28-.67,8.36,8.36,0,0,0-5,.9A8.73,8.73,0,0,0,26,28.78a8.89,8.89,0,0,0-.87,1.95,9.52,9.52,0,0,0-.36,2.52,11,11,0,0,0,.09,1.2,9.38,9.38,0,0,0,.46,1.91,8.21,8.21,0,0,0,3.32,3.92,10.15,10.15,0,0,0,5.06,1.52,5.25,5.25,0,0,0,.68,0c.19.78.39,1.49.63,2.35v0c.08.27.47,1.57.58,1.92l.14.5c0,.12.16.75.19.83.12.39.25.76.38,1.12l-.42.17A18.83,18.83,0,0,0,32.45,51,10.65,10.65,0,0,0,30,54a.56.56,0,0,0-.05.08,5.72,5.72,0,0,0-.6,1.91,4.52,4.52,0,0,0,0,1.31,3.9,3.9,0,0,0,.6,1.43,4.19,4.19,0,0,0,.94,1,8.66,8.66,0,0,0,.85.55c.34.17.67.29.74.32a8.75,8.75,0,0,0,3.51.23c1-.08,2-.21,3.14-.27a4.4,4.4,0,0,0,.49,0A17.3,17.3,0,0,0,40,62.32c.42,1.48.89,2.69,1.29,4,.14.51.35,1.19.57,1.93.44,1.45,1,3.17,1.3,4.54A30,30,0,0,0,39.81,75a61.82,61.82,0,0,0-5.27,4.17c-.42.36-.83.75-1.25,1.13s-.77.72-1.14,1.09c-.77.73-1.49,1.5-2.22,2.26a8.32,8.32,0,0,0-1.5,1.54l-.22.35c-.32.38-.83,1-1.24,1.46l-.74.94a28.76,28.76,0,0,1-2.13,2.76,12.27,12.27,0,0,0-1.34,2,32,32,0,0,0-1.7,3.47l-.49,1.16a27.3,27.3,0,0,1-1.28,3.15,87,87,0,0,0-3.39,8.16,79.4,79.4,0,0,0-2.23,8.61,43.58,43.58,0,0,0-1.09,6.64c-.23,1.45.32,4.23.42,5.69.23,1.68.43,2.91.49,4.06a28,28,0,0,0,.27,3.45,51.61,51.61,0,0,0,5,15.05c1.43,2.61,2.51,5.29,4,7.82.52.92,1,1.86,1.56,2.74l1.78,2.58A50.23,50.23,0,0,0,30,170.12l1,1.2,3.35,3.31a30.76,30.76,0,0,0,2.34,2.08l2.63,2.19a5,5,0,0,0,.47.45c-.85,1-1.74,2-2.61,3.06-1,1.31-2.14,2.63-3.31,4l-1.32,1.64-.43.63a17.4,17.4,0,0,0-1.61,2.69c-.23.51-.49,1-.68,1.53s-.33,1.11-.48,1.68c-.07.28-.15.56-.2.85l-.09.88c-.05.58-.08,1.17-.09,1.75a15.23,15.23,0,0,0,.19,1.67,7.41,7.41,0,0,0,.33,1.61c.16.49.34,1,.53,1.45a7.69,7.69,0,0,0,.66,1.35,5,5,0,0,1,.43.91,4,4,0,0,1,.15.49s.09.26.14.43l.18.51,1.19,2.92.45.89a10.9,10.9,0,0,0,1.29,1.94,5.31,5.31,0,0,0,1.57,1.2c-.67.7-1.33,1.39-2,2.1A6.58,6.58,0,0,0,33,216.74l-.17.26-1,1.09-.59.7a14.06,14.06,0,0,1-1.73,2,8.39,8.39,0,0,0-1.12,1.42,23.42,23.42,0,0,0-1.54,2.52l-.47.84a21,21,0,0,1-1.35,2.23,128.31,128.31,0,0,0-7,11.6c-.5.88-.88,1.56-1.24,2.25S16.06,243,15.62,244a43.07,43.07,0,0,0-1.2,4.25,14.85,14.85,0,0,1-.84,3,24.4,24.4,0,0,0-.83,2.54A59.15,59.15,0,0,0,10.94,266c0,1.15-.09,2.28-.21,3.4s-.2,2.25-.3,3.39A74.44,74.44,0,0,0,11.87,292.12ZM36.73,34A4.81,4.81,0,0,1,36,35.34a3.63,3.63,0,0,1-1.23,1,3.32,3.32,0,0,1-1.55.32,2.17,2.17,0,0,1-.41,0,3.27,3.27,0,0,1-2.36-1.13,3.52,3.52,0,0,1-.61-2.24,3.22,3.22,0,0,1,.3-1.38,3.58,3.58,0,0,1,1-1.3,3.45,3.45,0,0,1,2.27-.72,4.26,4.26,0,0,1,2.07.71,3.3,3.3,0,0,1,1.32,1.82A2.59,2.59,0,0,1,36.73,34ZM38,55.05l-.26,0c-.12,0-.27,0-.44.07,0,0-.57.16-1.17.27l-.53.08.11-.12c.53-.57,1.19-1.19,1.83-1.83C37.69,54.09,37.85,54.6,38,55.05Zm13.46-6.27,1.46-.94A6.39,6.39,0,0,1,51.45,48.78Zm-30,205.15c.59-.06,1.18-.1,1.78-.11v0a19.06,19.06,0,0,1,3.69.22,5.4,5.4,0,0,1,.58.11l.13,0,.24.07.67.2.07,0,.46.13c.36.1.73.2,1.1.27l.39.08a18.19,18.19,0,0,1,2.38.64c.75.31,1.54.58,2.27.94a9.29,9.29,0,0,0,2.12,1.1c.56.11.87.54,1.3.78s.54.88.88,1.2.66.57,1,.85a71.69,71.69,0,0,0-2.86,6.8c-.93-.32-1.78-.69-2.73-1.09a9.06,9.06,0,0,0-2.35-.9,2,2,0,0,1-1.24-.72,2.16,2.16,0,0,0-1.46-.45l-.27,0a3.59,3.59,0,0,1-.73-.12l-.47-.16h0a6.51,6.51,0,0,1-.59-.39,4.21,4.21,0,0,0-.94-.38,11.38,11.38,0,0,1-1.22-.32,17.69,17.69,0,0,0-1.79-.35h-.13c-.45-.05-.89-.09-1.32-.16-1-.13-1.9-.22-2.86-.3.4-2.14.86-4.27,1.42-6.37C21.15,255,21.33,254.46,21.49,253.93ZM40,196a13.73,13.73,0,0,1,2.53-4.07l.8-1.07c.31-.42.75-.89,1.2-1.45s1-1.1,1.59-1.8L47.63,186l.31.18a4.84,4.84,0,0,0,1.32.57l.18.31.56,1.08c.5.95.94,1.92,1.37,2.93a11.85,11.85,0,0,0,2.33,3.84c.61.58,1.41.55,2.15.77l2.25.49h.09l-.27.15-1.28.85c-.84.57-1.7,1.12-2.48,1.77s-1.85,1.32-2.78,2-1.88,1.23-2.83,1.85a71.1,71.1,0,0,0-6,4.66,6.41,6.41,0,0,0-.23-.78c-.23-.72-.52-1.42-.79-2.11s-.45-1.35-.73-2c-.07-.17-.11-.32-.16-.48l-.07-.23-.13-.55-.24-.84a11.26,11.26,0,0,0-.27-1.31c-.06-.39-.07-.74-.14-1.12s0-.65,0-1Zm3.53-142.6-.53.17s-.26-.92-.4-1.39C43,52.66,43.25,53.05,43.55,53.41Zm6.25-4.08c-.37.32-.72.6-1,.78s-.63.45-.9.65l-.49-.85A12.62,12.62,0,0,1,49.8,49.33Zm5.33,19.88a23.72,23.72,0,0,1-3.88,1.84l-.59.1c-.55.07-1.1.17-1.66.24l-.89.12c-.47-1.42-1-3.05-1.38-4.62-.23-.81-1.41-5.14-1.55-5.67-.24-.93-.46-1.59-.69-2.24.76-.37,1.43-.79,2.19-1.2.11.18.23.37.38.57.53.74,1.49,2,2,2.77l.26.36s1.54,1.75,1.81,2.12c.47.64.82,1.42,1.28,2.06.09.14.19.28.29.41h0l.13.18.33.46c.26.37.72.89,1.07,1.33l.63.81C54.94,69,55,69.09,55.13,69.21ZM134.61,136l-.48,2.91c-.06.31-.11.62-.15.94s-.06.58-.08.88a3.35,3.35,0,0,0-.57.54c-1,1.28-1.87,2.51-2.78,3.71a17.36,17.36,0,0,1-3.35,3,22,22,0,0,0-2.71,2.74,41.67,41.67,0,0,1-3.2,2.68,2.17,2.17,0,0,0,.07-.24,36.44,36.44,0,0,0,.91-17c-.13-.79-.3-1.57-.48-2.35a6.15,6.15,0,0,0,2.74.12,9.91,9.91,0,0,0,6-3.87c5.38-6.89,3-18.86-5.26-22.54-3.3-1.47-3.61,1-4.11,3.85-.25,1.43-.88,3-2.25,3.47a2.68,2.68,0,0,1-2.24-.3c-3.63-9-5.75-26.64-25.56-25.1C84,74.58,58,86.74,49.75,94.92a33.21,33.21,0,0,0-9.62,20.38c-.81,6.8-2,13.87,2.22,19.47,3.6,4.8,9.31,7.55,12.65,12.6a4.39,4.39,0,0,1,.9,2.43c-.1,4-8.2,1.78-10.43,1.67a1.75,1.75,0,0,0-1.8,2.06,19.13,19.13,0,0,0,6.94,11.84,14.66,14.66,0,0,0,14.71,1.86,1.82,1.82,0,0,0,1.39-.38c.28.8.53,1.6.77,2.41a21.79,21.79,0,0,1,.46,2.62,7.21,7.21,0,0,1,.08.75l-2.41.34c-2.2.28-4.39.64-6.62.76-1.58.11-3.17-.13-4.74-.06-.77.05-1.94-.23-2.79-.19-1.41-.66-2.66-1.2-3.72-1.72a15.12,15.12,0,0,1-1.33-.8A13,13,0,0,1,45,169.88a15.8,15.8,0,0,0-1.39-1l-1.43-1.15-1.27-1.2a32.93,32.93,0,0,1-3.32-3.66,34,34,0,0,0-3.32-3.55c-.15-.16-1.12-1.31-2.15-2.71s-2-3.12-2.54-4.14a57.59,57.59,0,0,1-5.84-17.67,49.57,49.57,0,0,1,.57-18.45c.27-1.08.63-2.15,1-3.23l.51-1.62.68-1.57c.46-1,.88-2.11,1.3-3.16s1-2.06,1.44-3.12c.22-.5.43-1,.66-1.51A44,44,0,0,1,35.64,93c.38-.41.72-.83,1.15-1.23.87-1,1.74-1.92,2.5-2.87l.09-.09c.39-.41.83-.84,1.22-1.2s.77-.73,1.17-1.08a28.88,28.88,0,0,1,3.64-2.71,26.59,26.59,0,0,1,3.77-2.4,22.71,22.71,0,0,1,3.11-.65l.6-.14.43-.11.51-.15a10,10,0,0,0,1.11-.42l.54-.24.34-.16c.9-.44,1.73-.88,2.35-1.21A29.51,29.51,0,0,0,62,76a17.77,17.77,0,0,0,2.59-2.3A46.55,46.55,0,0,1,78,71.58,48.92,48.92,0,0,1,92.88,74a54.75,54.75,0,0,1,6.46,2.59c2.16,1,4.16,2,6.23,3,.49.23,1,.5,1.45.76a48.34,48.34,0,0,1,9,6.14c.4.4.81.76,1.19,1.2.93.9,1.86,1.8,2.8,2.59l.09.09c.79.84,1.55,1.72,2.29,2.6a43.25,43.25,0,0,1,2.82,4,30,30,0,0,0,2.78,4,23.58,23.58,0,0,1,1.72,3l.6,1.19.53,1.21c.32.78.66,1.49.82,2a65.27,65.27,0,0,1,2.43,9.07,60.67,60.67,0,0,1,1,9.3A59.38,59.38,0,0,1,134.61,136Zm-59,21a3,3,0,0,0,.61,1.35,13.12,13.12,0,0,0,1.6,1.82c.52.44,1,.91,1.58,1.3a26.66,26.66,0,0,0,3.64,2.28,38.32,38.32,0,0,0,9.84,3.5l-.56.17h0c-.93.2-2.12.24-2.28.29-.39.16-2.93.43-3.29.68a40,40,0,0,1-4,1.07c-2,.44-3.9.88-5.84,1.38l-.13,0-.5.13c-.53.14-1.07.26-1.61.37-.28-.75-.62-1.48-.94-2.22-.53-1.17-1.19-2.27-1.64-3.44s-.95-2.57-1.46-3.83l.19-.33c4.19-7.21-3.54-21.36-5.7-28.74-1.28-4.39,2.29-2.2,5.17-5.73,1.86-2.27,3.61-4.63,5.31-7-.12.39-.24.78-.39,1.2-.19.68-.5,1.55-.93,2.73-.31.85-.83,2.13-1.39,3.4s-1.53,3.13-1.08,3.46c.23.17.77-.12,1.45-.66a9.5,9.5,0,0,0,2.09-2.31c.53-.84,1-1.71,1.54-2.58,1.26-2.33,2.55-4.67,3.7-7.13a24,24,0,0,0,2.4-7.81c0-.24.08-.48.12-.73l.22-.89c.34-.53.67-1.07,1-1.61a32,32,0,0,1,.25,3.89c0,.64,0,1.49,0,2.64,0,.45,0,1-.08,1.64s-.13,1.31-.2,2c-.17,1.52-.56,3.41,0,3.61.27.1.71-.32,1.22-1A9,9,0,0,0,86.85,117c.12-.49.26-1,.36-1.47l.33-1.48.62-3.68c.18-1.23.36-2.48.49-3.74a28.51,28.51,0,0,0,.14-4.53c.41.74.83,1.56,1.27,2.54.3.58.65,1.35,1.08,2.42.17.41.37.94.58,1.53s.42,1.25.63,1.91c.45,1.45.86,3.34,1.42,3.32.29,0,.51-.58.7-1.44a9.26,9.26,0,0,0,.08-3.14c-.08-.49-.15-1-.25-1.49l-.3-1.49-.92-3.61c-.24-.89-.5-1.78-.77-2.67.67.52,1.38,1.16,2.06,1.72l1.16,1,1.12,1.06c1.51,1.38,2.94,2.85,4.31,4.37s2.69,3.08,3.9,4.72A71,71,0,0,1,111.49,123a47.42,47.42,0,0,1,4.65,12.13,31.61,31.61,0,0,1,.33,12.88,9.06,9.06,0,0,1-.36,1.56l-.63,2.33-.28.82c-.17.53-.36,1-.56,1.51s-.42,1-.62,1.37l-.17.33c-.11.22-.24.42-.37.63a12.47,12.47,0,0,1-1.64,2.2c-.24.27-.49.54-.73.82l-1.06.5c-1.27.62-2.51,1.3-3.75,2a10.11,10.11,0,0,1-4.53,1.46,8.19,8.19,0,0,0-2.31.62c-.44,0-.87.07-1.31.08-.78,0-1.56,0-2.35-.08s-1.55-.17-2.33-.3a35.55,35.55,0,0,1-4.56-1.08,42,42,0,0,1-4.4-1.6,33.56,33.56,0,0,1-4.15-2.09,13,13,0,0,1-1.07-.76c-.39-.37-.8-.73-1.18-1.11-.77-.78-1.46-1.31-2.12-1.07A.63.63,0,0,0,75.63,157ZM137,154.78c0,.25,0,.49-.06.74a4.14,4.14,0,0,1-.83,2.17,5.59,5.59,0,0,0-.48.61c-.3.4-.6.79-.92,1.18-.55.68-1.12,1.36-1.74,2a40.19,40.19,0,0,1-5.54,4.85c-.44.28-.85.59-1.33.84a32.57,32.57,0,0,0-2.88,2l-.08.05c-.9.59-1.84,1.1-2.75,1.66-1.24.71-2.87,1.44-4.43,2.14a27.63,27.63,0,0,0-4.45,2.41,67.48,67.48,0,0,1-8,3.41,168.37,168.37,0,0,1-19,5.24c-3.37.71-6,1.17-8.92,1.52a71.31,71.31,0,0,1-8.62.58,32.59,32.59,0,0,1-4.3-.3c-.67-.09-1.33-.18-2-.32l-1-.17c-.14-.11-.28-.2-.41-.32l-.12-.16c1.43-.42,2.87-.81,4.32-1.12,3-.37,6.08-.84,9.11-1.38v.06c4.55-.78,9.06-1.81,13.56-2.88,1-.25,1.91-.47,2.89-.69.52-.12,2.65-.57,3.18-.7l1-.27a51.82,51.82,0,0,0,5-1.61c.47-.19,1-.33,1.41-.54L104,174c.7-.3,1.42-.57,2.12-.89l2.1-1c1.4-.65,2.8-1.27,4.18-1.94l4.08-2.15c1.34-.67,2.72-1.34,4.06-2a14.81,14.81,0,0,0,3.69-2.55c1.43-1.51,3.27-2.05,4.7-3.3s3.36-1.55,4.9-2.6a23.91,23.91,0,0,0,2.66-2.28Zm57.15-87.55-.31.1a20.89,20.89,0,0,1-6.92.86,59.92,59.92,0,0,0-7,.16,2.57,2.57,0,0,1-.62,0l-.3,0-1.6-.37c-.1,0-.21-.05-.31-.09a4,4,0,0,0-1.42-1.54c-.06-.32-.12-.64-.19-1a15.3,15.3,0,0,0-.49-1.76l-.22-.67c-.13-.33-.27-.65-.41-1-.56-1.29-1.16-2.55-1.8-3.77-1.28-2.46-2.69-4.79-4.14-7-1.2-1.88-2.45-3.71-3.68-5.5l-2.8-4c-.45-.63-.83-1.07-1.19-1.5a25.23,25.23,0,0,1-1.72-2.18,2.77,2.77,0,0,1-.26-.47h0s0-.14,0-.22,0-.21,0-.22,0,0,0,0l.31.2.15.11.31.23a16.79,16.79,0,0,1,1.45,1.18,11.52,11.52,0,0,0,1.49,1.2,6.09,6.09,0,0,0,6.83-.28,6.3,6.3,0,0,0,1.87-2.23,4.92,4.92,0,0,0,.42-1.26V33.76a2.46,2.46,0,0,0-.08-.83l-1.44-5.6c-.23-1-.44-1.94-.58-2.87a15,15,0,0,1-.06-5.17,8.67,8.67,0,0,1,1.25-3.24A4.45,4.45,0,0,1,173,14.29a3.58,3.58,0,0,1,2.69.07,9.25,9.25,0,0,1,3.12,2.43A28.36,28.36,0,0,1,182,21c.5.78,1,1.58,1.47,2.44s1,1.7,1.38,2.6a78,78,0,0,1,4.57,12,106.08,106.08,0,0,1,3.53,18.1c.12.88.18,1.78.27,2.68.05.46.1.91.13,1.37s0,.86.09,1.29.31,2.84.39,3.67A8.38,8.38,0,0,0,194.19,67.23Zm.53,51a14.05,14.05,0,0,1-3.33.29,18.64,18.64,0,0,0-2.7-.13,2.27,2.27,0,0,1-1.47-.45,2.79,2.79,0,0,0-1.63-.24h-.3a3.87,3.87,0,0,1-.82-.06l-.56-.13h0a6.94,6.94,0,0,1-.71-.36,6.46,6.46,0,0,0-1.09-.33,12.35,12.35,0,0,1-1.37-.29c-.64-.16-1.28-.27-1.91-.39h0l-.11,0c-.46-.08-.89-.17-1.32-.28a13.82,13.82,0,0,1-2.74-1.07c.12-.52.22-1,.32-1.57h0c.25-.94.7-2,.71-2.22a30.42,30.42,0,0,0,.67-3.37c0-.27.4-3.08.51-4.23s.23-2,.29-3,.11-2,.16-3c0,0,.16-4.93.16-4.93.12-4.47.1-8.92.05-13.35,0-1.42.11-2.81.12-4.22h0l.66.13.12,0,.49.08,1,.14a41.92,41.92,0,0,0,6.72.09c1.65-.07,3.4-.29,5.75-.62.51-.1,1.16-.24,1.94-.43.73,4.31,2.07,8.73,2.36,13.27.23,3.53.18,7.07.09,10.6h0l-.14,4-.21,3.36c0,.41-.4,4.44-.47,5.13l-.41,3.36C195.27,115.3,195,116.74,194.72,118.19Zm-4.88,13.4a21.93,21.93,0,0,1-2.22-.26,19.92,19.92,0,0,0-2.87-.45,2.41,2.41,0,0,1-1.52-.58,3.14,3.14,0,0,0-1.69-.37l-.31,0a3.69,3.69,0,0,1-.82-.12l-.62-.21c-.27-.14-.54-.37-.59-.39a6.7,6.7,0,0,0-1-.45,8.2,8.2,0,0,1-1.3-.48l-1.88-.7h0l-.11,0c-.46-.16-.92-.32-1.36-.52-.66-.29-1.32-.59-2-.91.06-.14.11-.29.17-.43.31-.73.73-1.41,1.1-2.17a11.11,11.11,0,0,0,.9-2.49c.07-.34.12-.69.18-1,.55.22,1.1.42,1.66.59v0c1.55.48,3.05.78,4.5,1.09.47.1.93.23,1.39.36s1,.29,1.49.4h0c.31.07.63.13.94.17l.49.07a60.86,60.86,0,0,0,6.1.6,8.17,8.17,0,0,0,3-.06l.19,0c-.35,1.56-1.23,5.77-1.35,6.33-.16.72-.33,1.44-.5,2.16A14.16,14.16,0,0,1,189.84,131.59Zm-7.3,12.11a13.52,13.52,0,0,0-2.77-1.25,2.94,2.94,0,0,1-1.44-.92,3.16,3.16,0,0,0-1.69-.67l-.32-.07a4.51,4.51,0,0,1-.84-.23l-.55-.24h0a6.89,6.89,0,0,1-.66-.49,6.65,6.65,0,0,0-1.07-.53c-.1,0-1-.39-1.38-.53q-1-.39-2-.69h-.05l-.11,0c-.49-.15-1-.29-1.48-.45l-1.25-.38c.14-.28.29-.54.44-.83.89-1.81,1.83-3.59,2.57-5.44l1.07.5v0c.72.33,1.45.63,2.19.93l4.19,1.66c.31.13.63.25.95.35l.08,0h0a7.26,7.26,0,0,0,1,.26l.5.11c2,.42,4.09.85,6.13,1.14a8.79,8.79,0,0,0,3,.36,4.07,4.07,0,0,1,1.49.13c-.29,1-.6,2-.93,3-.5,1.66-1.09,3.27-1.68,4.88-.19.51-.39,1-.58,1.51a4.42,4.42,0,0,1-.55-.17C185.28,145.07,184,144.42,182.54,143.7Zm-3.72,14a12.8,12.8,0,0,0-2.66-2,3.84,3.84,0,0,1-1.38-1.27,3.62,3.62,0,0,0-1.71-1,2.26,2.26,0,0,0-.33-.13,5.24,5.24,0,0,1-.87-.39l-.57-.32h0c-.3-.22-.61-.59-.67-.61a9.65,9.65,0,0,0-1.1-.69c-.11,0-1-.53-1.45-.71a19,19,0,0,0-2.14-.9l0,0h0l0,0-5.19-1.79c1.16-1.78,2.25-3.5,3.29-5.22.15-.25.29-.51.43-.76l1.79.56v0c.56.17,1.1.36,1.65.54.84.29,1.68.57,2.5.89.42.17.84.36,1.26.56s.95.47,1.43.67h0c.29.12.59.24.9.34l.45.15c1.81.62,3.59,1.39,5.32,2.18a9.4,9.4,0,0,0,2.52,1.2c.66.1,1,.59,1.59.8s.79.87,1.25,1.2l.12.07a55.27,55.27,0,0,0-3.44,7.17,9.45,9.45,0,0,1-.7,1.58l-.31-.29C180.12,158.81,179.48,158.26,178.82,157.66ZM170,173.87c-.8.88-1.66,1.7-2.52,2.51s-1.77,1.58-2.6,2.41a2.57,2.57,0,0,0-.49.71l-4.31-6.28c-1.32-1.84-2.34-3.88-3.63-5.74a36.16,36.16,0,0,0-2.21-3.53c-1-1.16-1.7-1.43-2.49-2.65a2.63,2.63,0,0,0-1.48-1.05,3.15,3.15,0,0,0,.63-.5c1.35-1.3,2.39-2.72,3.5-4a30.76,30.76,0,0,1,3-3.34,7.28,7.28,0,0,1,1.69.13c1,.31,1.94.64,2.9,1h0c1.44.52,2.84,1.09,4.21,1.74h0c.41.21.81.45,1.21.69s.94.58,1.42.86h0c.29.17.58.33.87.47l.44.22a29.86,29.86,0,0,1,4.9,3.23c.78.56,1.25,1.48,2.16,1.86.58.29.81.84,1.25,1.22-1,1.6-2.67,2.74-3.86,4.17-.79,1-1.53,2-2.28,2.95S170.82,173,170,173.87Zm72.14,109.07a5.87,5.87,0,0,1-.76.5c-.51.27-.84.83-1.28,1.23a45.06,45.06,0,0,1-4.68,3.56,25.3,25.3,0,0,0-3.17,2.16,4.48,4.48,0,0,1-1.92.94,5,5,0,0,0-1.92,1.26l-.31.27a6,6,0,0,1-.88.65l-.68.39c-.38.18-.88.3-.94.34a12.06,12.06,0,0,0-1.35.66c-.08.09-1.16.7-1.61.94-.78.42-1.54.89-2.3,1.37l-.05,0-.13.09-1.67,1q-2,1.17-4.11,2.28a4.51,4.51,0,0,1,.65-1,7.57,7.57,0,0,0,.68-1.53,31.35,31.35,0,0,1,3-4.7,27.11,27.11,0,0,0,2.19-2.92,3.9,3.9,0,0,1,1.47-1.41,4.67,4.67,0,0,0,1.39-1.68l.2-.33a7.28,7.28,0,0,1,.62-.84l.54-.55a8.19,8.19,0,0,1,.76-.52,13.78,13.78,0,0,0,1.06-.95,16,16,0,0,1,1.24-1.23c.62-.57,1.21-1.17,1.8-1.76l0,0,.1-.11c.43-.43.86-.85,1.31-1.25a28.8,28.8,0,0,1,4.27-3.22,1.63,1.63,0,0,1,.19-.09l.24.2c.64.57,1.32,1.09,1.92,1.69a35.82,35.82,0,0,1,3.4,3.69ZM248,294.1a51,51,0,0,1-4.53,3.29c-1,.69-2.22,1.16-3.35,1.9A4.21,4.21,0,0,1,238,300a6.56,6.56,0,0,0-2.24.92l-.38.21a5.94,5.94,0,0,1-1.06.48l-.86.25a8.49,8.49,0,0,1-1,.12,13.08,13.08,0,0,0-1.56.34,13.88,13.88,0,0,1-1.91.51l-2.81.72-.15,0c-.67.19-1.34.33-2,.47a39.52,39.52,0,0,1-6.13.82,4.85,4.85,0,0,1-.66,0c1.07-.58,2.14-1.18,3.2-1.78v0l5.12-2.94c.57-.34,1.17-.64,1.77-.95a22.75,22.75,0,0,0,2.87-1.66l7-4.73a14.89,14.89,0,0,0,3.1-2.18,14.86,14.86,0,0,1,1.94-1.43c.57-.49,1.45-.58,2.1-1a7.25,7.25,0,0,0,.67-.46c.09.17.17.34.25.51.57,1.07,1.11,2.31,1.69,3.46C247.3,292.51,247.67,293.3,248,294.1Zm3.44,24.3c-.38,3.67-1.72,7.3-1.95,11a25.58,25.58,0,0,1-1.43,5.73,2.13,2.13,0,0,1-1,.45c-.47.07-.74.63-1.18.88a14.35,14.35,0,0,1-4.74,1.75,18.32,18.32,0,0,0-3.35.63,2.38,2.38,0,0,1-1.93-.17,2.85,2.85,0,0,0-2,.19l-.36.1a3.67,3.67,0,0,1-1,.17l-.67,0h0a4.83,4.83,0,0,1-.88-.32,6.72,6.72,0,0,0-1.21-.26,6.35,6.35,0,0,1-1.51-.2c-.71-.15-1.43-.27-2.16-.4h0l-.19,0c-.5-.11-1-.21-1.5-.37a17.78,17.78,0,0,1-4.39-2.06,13,13,0,0,1-1.22-1.24c-.23-.19-.4-.68-.66-.84s-.62-.07-.82-.37-.57-.05-1.15.32c.16-1,.31-2.05.44-3.06.21-1.76.39-3.5.55-5.24a6.22,6.22,0,0,0,.23-1.76l0-.34.21-2.54a13.08,13.08,0,0,1,.25-2.83,9.93,9.93,0,0,0,.14-1.92c0-.51,0-1,0-1.53,0-.66-.08-1.32-.14-2a13.41,13.41,0,0,0-.3-1.7v0c.86-.21,1.7-.45,2.55-.59,1.47-.16,2.93-.39,4.37-.66,0,0,0,0,0,.05,2.15-.43,4.3-.9,6.41-1.46l2.29-.55c.68-.17,1.37-.34,2-.55h0c.46-.14.92-.3,1.37-.48l.67-.27a56.46,56.46,0,0,0,8-3.82,16.44,16.44,0,0,0,3.47-2.36,4.84,4.84,0,0,1,1.23-.91,41.79,41.79,0,0,1,1.79,8.55A56.28,56.28,0,0,1,251.47,318.4Zm-39,68.63,1.24.43v0l1.56.55,6.91,2.1c.69.22,1.39.43,2.1.62h0c.47.13.94.24,1.42.33l.7.13c1.55.24,3.11.48,4.65.81.24.05.47.12.71.18a11.79,11.79,0,0,0,1.65.2l1.5.23a16.08,16.08,0,0,0,4.15.57c.19,0,2.55.22,3.52.39,5.28.76,10.61,1.18,15.94,1.43a54.44,54.44,0,0,0,5.88.35s3.58-.09,5-.14,2.87-.07,4.29-.14a19.25,19.25,0,0,0,4.17-.24,24.56,24.56,0,0,1,2.64-.2,2.41,2.41,0,0,1,.6,0,11.54,11.54,0,0,1-1.4.5,30.94,30.94,0,0,1-4.39.78c-.95.15-2.82.78-3.88.93-2.4.64-3.68.1-5.56.12l-6.33-.09c-2.12,0-4.23,0-6.33,0a36.44,36.44,0,0,1-6.94-.66c-6.51-1-12.94-1.91-19-3.75a6.54,6.54,0,0,0-1.52-.55l-.31,0-1.35-.45-.84-.31a10.17,10.17,0,0,1-2.47-1,10,10,0,0,0-1.74-.69c-.91-.29-1.82-.53-2.76-.79-.3-.07-.58-.16-.86-.25a10.47,10.47,0,0,1-1.12-.39,5.37,5.37,0,0,1-1-.5ZM209,367.52c.18-.85.4-1.62.51-2.56.51-4,1.44-8.07,2-12.26a48.32,48.32,0,0,1,1.79-6.93q.56-1.9,1.05-3.84c1.08.31,2.2.54,3.18.92a31.3,31.3,0,0,0,3.85,1.67s0,0,0,.06a33.68,33.68,0,0,0,6.13,1.51l2.12.37,1.18.14a10.91,10.91,0,0,0,2.28,0l.65-.05a76.4,76.4,0,0,0,7.83-1.1c.85-.18,1.77-.19,2.62-.43-.66,2.16-1.2,4.39-1.86,6.59-.85,2.79-1.89,5.57-2.6,8.47a5.3,5.3,0,0,0,1.4,4.33,4.83,4.83,0,0,0,3.73,2c1.05-.11,2.16.62,3.2.48a1.94,1.94,0,0,0,.39-.12l.06,0a8.78,8.78,0,0,0,3.59,1.8c4.45.67,8,.12,11.54.88,1.42.3,2.94-.1,4.33-.07,4.78.1,8.74.92,11.7,3,1.9,1.37,3.1,3.4,4.73,5.62a6.52,6.52,0,0,1,1,2.14,4.65,4.65,0,0,1,.19,1.06,7.17,7.17,0,0,1,.06,1,18.25,18.25,0,0,0,.7,4,4.24,4.24,0,0,1,.11.7c0,.3,0,.62,0,.93a8.17,8.17,0,0,1-.14.84,10.65,10.65,0,0,1-3.32.45,8.68,8.68,0,0,0-1.92.37,48.3,48.3,0,0,1-6.47.58c-1.41.08-2.82-.07-4.22.15a5.37,5.37,0,0,1-2.34-.2,6.48,6.48,0,0,0-2.52,0l-.45.05a8.11,8.11,0,0,1-1.21.08c-2.09-.05-4.18-.17-6.26-.38-.93-.09-1.4-.21-2.33-.29-.51-.05-1.48.07-2,.07a10.58,10.58,0,0,1-2.65-.19c-1.87-.06-3.73-.32-5.61-.31a14.57,14.57,0,0,1-3.09-.44c-1.46-.31-2.93-.54-4.4-.77l-4.37-.78a2.7,2.7,0,0,0-.74-.17h-.15l-1.06-.23a5.18,5.18,0,0,1-1.19-.29,4.24,4.24,0,0,0-.81-.18c-.43-.06-.87-.09-1.35-.12l-.45,0a5.34,5.34,0,0,1-1.19-.17l-.79-.21c-.44-.16-.94-.45-1-.47a14,14,0,0,0-1.55-.51,16.81,16.81,0,0,1-1.94-.54c-.92-.33-1.86-.57-2.79-.82l-.06,0-.16,0a20.35,20.35,0,0,1-2-.6l-3-1.06c-1-.35-1.95-.82-2.92-1.25a9.38,9.38,0,0,1-.94-.51c0-.19,0-.37-.05-.55,0-1,0-1.68,0-2.39s.11-1.45.12-2.41c0-.51-.07-1.27-.14-2a20.27,20.27,0,0,1-.17-2.09A10.07,10.07,0,0,1,209,367.52ZM188.49,325l-2.79-5.46s-4.21-7.57-4.86-8.71L178,305.51l0-.08-.09-.28-.07-.28-.06-.27-.05-.29.16,0,.25,0,.81-.1.4.05,1.36.23,4.23.86,17.43,4.17.54.16.52.16.48.17.7.26.68.3.83.41h0l0,0,0,0h0l0,0,0,0h0l0,0,0,0,0,0,0,0,.06.05,0,0,0,0,0,0,0,0,.06.05,0,0,0,0,0,0,0,0,0,0,0,0,0,.07,0,0v0l0,.07v.08l0,0v0h0V312l0,0v.13h0a2,2,0,0,1,.08.33s0,0,0,.11l-.06,3.57c-.05,1.73-.11,3.45-.21,5.16-.07.52-.11,1-.2,1.57a26.89,26.89,0,0,0-.16,3.55s-.2,2.23-.3,3.28c-.35,2.93-1.38,5.8-1.35,8.79a72.44,72.44,0,0,1-1.54,7.58c-.93,3.51-1.86,7.09-2.66,10.76-.07-.8-.17-1.59-.31-2.37a32.81,32.81,0,0,0-.81-3.22c-.28-1-.58-1.91-.89-2.86-.88-2.71-1.48-5.65-2.84-8.16l-3.95-8.09Zm-4.17,15.89,1.51,2.72a6.63,6.63,0,0,1,.85,1.45c.36.87.69,1.75,1,2.62a3,3,0,0,1-.41.39,18.77,18.77,0,0,1-4.94,2.71,35,35,0,0,0-3.56,1.35,4.51,4.51,0,0,1-2.12.43,5.13,5.13,0,0,0-2.22.74l-.38.19a8.11,8.11,0,0,1-1.06.43l-.74.23h0c-.44.09-1,.1-1.07.12a11.66,11.66,0,0,0-1.47.35,17.41,17.41,0,0,1-1.78.52c-.86.23-1.72.49-2.57.75l-.05,0-.19.06c-.61.18-1.22.36-1.83.51a50.42,50.42,0,0,1-5.75,1.15c-.68.09-1.37,0-2,0-.35,0-.88-.11-1.24-.06a2.31,2.31,0,0,0-.54.16,17,17,0,0,1,2.38-3.28c1-.85,2.11-1.66,3.22-2.45h0q2.47-1.8,5.13-3.42c.55-.34,1.13-.66,1.72-1,1.06-.56,2.14-1.12,3.15-1.79l3.19-2,.82-.45a20.1,20.1,0,0,1,3.41-1.48c1.15-.39,2.41-.37,3.56-.86a10.45,10.45,0,0,1,2.41-.34A4.67,4.67,0,0,1,184.32,340.9Zm6.21,16.92a3.73,3.73,0,0,1-.91,1,2.93,2.93,0,0,0-.52.59,4.14,4.14,0,0,1-.51.66,15.11,15.11,0,0,1-4.89,3c-1.23.47-2.58.76-3.81,1.34a4.57,4.57,0,0,1-2.23.37,5.83,5.83,0,0,0-2.35.59l-.4.14a6.43,6.43,0,0,1-1.12.31L173,366c-.44,0-1-.06-1-.05s-1.39,0-1.58.08a13.94,13.94,0,0,1-1.94.18l-2.82.19h-.05l-.16,0c-.68,0-1.37.06-2.05.07a45.92,45.92,0,0,1-6.2-.43c-.73-.11-1.42-.42-2.13-.56l-.25-.08c0-.45-.08-.89-.15-1.34,1.84-.26,3.56-1.2,5.31-1.65,1.35-.25,2.68-.54,4-.85v0c2-.48,9.28-2.47,9.59-2.56l.26-.07h0c.41-.13.82-.26,1.23-.42l.6-.21c2.43-.91,5-1.69,7.51-2.69a12.72,12.72,0,0,0,3.67-1.62,24.48,24.48,0,0,1,2.26-1.26,2.39,2.39,0,0,1,.22-.12c0,.16.09.32.13.48.27,1.19.31,2,.45,2.87C189.9,356.48,190.37,357.28,190.53,357.82Zm-.8,15.32c-1,4-1.61,8.13-2.49,12.21a2.46,2.46,0,0,0-.3,1c0,.09,0,.14,0,.21l-.35,1.5a4.68,4.68,0,0,1-.43,1.67,3.52,3.52,0,0,0-.28,1.15,12.11,12.11,0,0,0-.1,1.94v.64a6.94,6.94,0,0,1-.17,1.71c-.08.29-.16.59-.23.88a.63.63,0,0,0-.28.25c-.66,1.16-1.21,2.41-2.41,2.88-.47.17-.72.79-1.15,1.12a9.78,9.78,0,0,1-2.29,1.32,17.4,17.4,0,0,1-2.55.75c-.58.12-1.23.18-1.8.24a7.3,7.3,0,0,0-1.7.33,2.49,2.49,0,0,1-2-.32,3.23,3.23,0,0,0-2.15,0l-.38.07a3.37,3.37,0,0,1-1.05,0c-.26,0-.51-.08-.76-.13a9.51,9.51,0,0,1-.84-.46,11.72,11.72,0,0,0-1.34-.45,9.73,9.73,0,0,1-1.67-.45c-.78-.29-1.59-.48-2.36-.75l0,0-.14,0a11.7,11.7,0,0,1-1.65-.63,14,14,0,0,1-4.24-2.77c-.45-.38-.56-1-.88-1.41-.19-.21-.16-.71-.32-.9a.53.53,0,0,0-.12-.1c.28-1.43.57-3,.77-4.56.12-.87.18-1.74.26-2.61l.07-1.31c0-.21,0-.43,0-.65l-.09-.64c-.17-.87-.37-1.72-.53-2.6l-.21-1.15c-.06-.33-.14-.66-.18-1a13,13,0,0,1-.16-1.63v-.79l0-.41.06-.52c.17-1.4.48-2.86.76-4.29l.18-1c1.29,0,2.6-.19,3.87-.16,1.48.15,3,.22,4.43.25v0c1.28,0,2.57,0,3.85-.06.94,0,1.87-.09,2.8-.16l3.18-.22.93-.1a14.82,14.82,0,0,0,1.86-.34l.7-.15a79.76,79.76,0,0,0,8.4-2.53,13,13,0,0,0,4.05-1.83,18.65,18.65,0,0,1,2.06-1.31c0,1.32-.08,2.65,0,4A16.76,16.76,0,0,1,189.73,373.14Zm-42.65,68.68.33.2,0,0,5.36,3.26c.57.35,1.12.73,1.68,1.12a32.6,32.6,0,0,0,3,1.95l.58.34c1.27.73,2.53,1.5,3.73,2.32l.53.42a9.42,9.42,0,0,0,1.33.86l1.21.84a16.5,16.5,0,0,0,3.41,2.25c.17.07,2.18,1.28,3,1.79a33.44,33.44,0,0,0,15.39,5.46,32.64,32.64,0,0,0,5.94.2l.71-.07a62.27,62.27,0,0,0,8.54-1.52,14.44,14.44,0,0,0,4-1.23,13.06,13.06,0,0,1,2.19-.83,12.54,12.54,0,0,1-1,1.5l-.5.51a4.23,4.23,0,0,1-.81.68l-.44.31-.53.25a12.7,12.7,0,0,1-1.44.58l-.75.28-.81.25c-.53.17-1.08.32-1.66.47s-1.13.29-1.65.4a30,30,0,0,1-3.22.54c-1.07.11-2.16.06-3.24.08s-1.68-.22-2.4-.32-1.4-.33-2.38-.48a6.14,6.14,0,0,0-.95-.09l-1.17-.12c-.81-.07-1.63-.14-2.2-.21a13.22,13.22,0,0,1-3.12-.75c-.86-.33-1.59-.75-2.54-1.06-4-1.4-7.93-3.29-11.91-5.07a34.47,34.47,0,0,1-6.19-3.89c-2.53-1.86-4.93-3.72-7.32-5.64A15.06,15.06,0,0,1,147.08,441.82Zm-2-7.3a5.16,5.16,0,0,1,.09-.79,11.64,11.64,0,0,0,.11-1.71c0-.89,0-1.77,0-2.74l0-.91a13.68,13.68,0,0,1,.31-2.46c.52-2.17,1.07-4.05,1.78-6.76.33-1.28.66-2.6.95-4l.39-1.95c.1-.54.23-1.1.38-1.66.52-2,1-3,1.62-5.16a18.62,18.62,0,0,0,.45-2.33,27.23,27.23,0,0,0,3.84,2.32l0,0a35.88,35.88,0,0,0,3.59,1.5l1.1.38.07,0,1.6.51c.32.08.64.18,1,.28l1.22.39.45.12c.59.17,1.18.33,1.78.44h0a10.6,10.6,0,0,0,1.48.15l.73.05,2.23,0c.76,0,1.5,0,2.26-.06a30.51,30.51,0,0,0,4.52-.55c1.38-.28,3-.21,4.25-1.13a3.19,3.19,0,0,1,.67-.37c-.13.71-.27,1.43-.42,2.14-.68,3.05-1.35,6.13-2.11,9.21-.28,1.09-.87,2.11-1.17,3.2a15.42,15.42,0,0,0-.79,2c-.09.75.25,1.15,0,1.84-.44,1.15,2.78,2.61,5.88,3.4a8.36,8.36,0,0,0,1.29,1,43.2,43.2,0,0,0,6.06,2.61,25.41,25.41,0,0,1,5.07,2.36c1.23.8,2.51.9,3.8,1.6a28,28,0,0,1,5.73,3.89,13.86,13.86,0,0,1,3.55,4.7c.12.27.2.55.3.82l.2.83.37,2.23.36,2.79a6.6,6.6,0,0,1-1.09.46,8.42,8.42,0,0,0-1.57.93,26,26,0,0,1-5.66,2.16c-1.28.36-2.59.48-3.84.92a4.31,4.31,0,0,1-2.19.11,5.72,5.72,0,0,0-2.34.27l-.41.09a5.23,5.23,0,0,1-1.11.17,32.55,32.55,0,0,1-5.79-.32c-.82-.11-1.21-.32-2-.47-.43-.13-1.31-.1-1.77-.21a7,7,0,0,1-2.27-.73c-1.61-.56-3.17-1.31-4.79-2a12.91,12.91,0,0,1-2.51-1.54c-2.29-1.65-4.65-3.27-7-5a2.6,2.6,0,0,0-.59-.47l-.14-.06-.9-.65a5.36,5.36,0,0,1-1-.73,3.31,3.31,0,0,0-.69-.48c-.38-.22-.79-.41-1.23-.61l-.41-.19a7.16,7.16,0,0,1-1.06-.56l-.69-.45h0c-.37-.28-.76-.71-.83-.76a12.25,12.25,0,0,0-1.32-1c-.13,0-1.26-.77-1.72-1.06-.81-.53-1.65-1-2.49-1.48l0,0h0l-.06,0-.08,0-1.83-1c-1.82-1.09-3.62-2.19-5.35-3.37ZM109.12,301c2.53-.95,5-2.14,7.52-3,2.88-.82,5.72-1.74,8.52-2.72,0,0,0,0,0,0,4.2-1.47,18.71-6.83,18.77-6.86a49,49,0,0,0,4.77-1.93l1.32-.61a124.1,124.1,0,0,0,15.68-8.6c2.43-1.62,5.15-3,7-5.2,1.29-1.5,2.9-2.33,4.17-3.66s3-1.91,4.29-3.11a62.15,62.15,0,0,0,4.51-4.94c1.27-1.47,2.64-2.87,3.83-4.41.47.18.94.35,1.42.51a27.27,27.27,0,0,0,3.21.9c.22.06,1.43.43,4.17,1.3,1.4.36,4.88,1.47,6.72,2.11,3.62,1.34,7,2.61,10.37,4l2.51,1.06,2.46,1.14c1.66.72,3.24,1.55,4.82,2.38a73.32,73.32,0,0,1,6.3,3.77c-1.05.75-2,1.55-3,2.36l0,0c-1.49,1.28-2.9,2.62-4.29,4-.47.46-1,.91-1.46,1.37a19.38,19.38,0,0,0-2.23,2.3l-.4.49c-1.58,2-3.19,4-4.68,6a13.6,13.6,0,0,0-2.14,3,15,15,0,0,1-1.28,2c-.34.65-1.12,1-1.58,1.65-.56.76-1,1.65-1.45,2.47-.29.5-.61,1-.92,1.5l-.46-.22-1.33-.58-.88-.34c-.1,0-.91-.27-1.51-.44l-3.77-1-.69-.15-.26-.05h-.32l-12.75-2.9-3.58-.67-3.06-.44-3.3-.79-1.54-.3-.38-.07-1.13-.14-.38,0-.73,0h-.91l-.53,0-.35,0-.35,0-.35.06-.17,0-.17,0-.33.09-.63.19-.88.23-1.7.36-.56.14-.54.15-.27.08-.25.09-.21.1-.21.11-.2.13-.2.14-.19.16-.18.18-.18.18-.17.2-.17.21-.16.22-.15.23-.17.29.07.6.11.69.15.69.17.7.19.68c.07.23.13.45.21.66s.14.43.22.63.16.4.24.58l.12.27.12.26.12.24.13.22.35.58.35.52.35.49c.11.15,2,2.48,2,2.48l.31.4c1,1.79,9.72,17.5,9.72,17.5l1.31,2.16.28.5.26.49.25.49.23.48.22.48.39,1,.34,1c.11.33,1.08,3.49,1.14,3.68l.19.58.21.56.26.64a53.77,53.77,0,0,0-5.31,1,15,15,0,0,0-4.3,1.6,7.29,7.29,0,0,1-2.36.94,5.62,5.62,0,0,0-2.15,1.29l-.36.28a8.35,8.35,0,0,1-1,.69l-.72.41h0c-.42.2-1,.35-1.06.39a11.35,11.35,0,0,0-1.47.76c-.09.09-1.28.78-1.76,1.07-.85.5-1.67,1.08-2.49,1.65l0,0-1.9,1.39c-1.81,1.28-3.58,2.65-5.33,4.15-.63.5-1.34,1-2,1.52-.27.27-.73.58-1.06.9-1-1-2-2-2.92-3.1l-.23-.31a7.74,7.74,0,0,0-1.2-1.27l-.32-.26-1.89-2a12.48,12.48,0,0,1-1.92-2.21,12.38,12.38,0,0,0-1.34-1.5c-.75-.74-1.55-1.45-2.43-2.21l-.81-.72a20.33,20.33,0,0,1-2.1-2.05l-1.32-1.54c-.67-.91-1.32-2.14-1.45-2.29a38.65,38.65,0,0,0-2.48-3.18c-.26-.17-2.43-2.73-3.33-3.77l-2.3-2.61c-.74-.8-1.42-1.65-2.14-2.46l-.12-.16c-.12-.17-.28-.36-.45-.56-1-1.15-1.87-2.36-2.73-3.6a70.76,70.76,0,0,1-3.81-6.3,63.83,63.83,0,0,1-3-6.69,19.91,19.91,0,0,1-.71-2.51C109.38,302.2,109.26,301.61,109.12,301ZM92.88,272.51a5.62,5.62,0,0,1-.93-3.29,6.14,6.14,0,0,0-1.56-3.3l-.37-.53a8.05,8.05,0,0,1-.89-1.52l-.45-1.13a16.22,16.22,0,0,1-.23-1.62,14.5,14.5,0,0,0-.71-2.29,24.27,24.27,0,0,1-1.13-2.73c-.5-1.33-1.1-2.63-1.71-3.93l0,0v0a3.66,3.66,0,0,0-.22-.45c-.41-.86-.82-1.72-1.2-2.6-1.24-2.9-2.48-5.81-3.6-8.78a23.3,23.3,0,0,1-.66-2.68l.13,0a6.42,6.42,0,0,0,1.46-.47l.26-.14,1.67-.6,1.4-1.91c.22-.31.45-.65.67-1,.58-1.07,1.1-2.2,1.55-3.23a8.6,8.6,0,0,0,.59-2.26,15.07,15.07,0,0,0,.14-1.77c0-.58,0-1.19-.08-1.78l-.11-1.1-.39-2.86c-.12-1.23-.33-2.4-.54-3.58l-.38-1.73c-.11-.53-.32-1.3-.52-1.91a29.61,29.61,0,0,0-3.42-6.9,32.52,32.52,0,0,0-3.36-4.48,23.56,23.56,0,0,0-3.85-2.88c-1.62-.86-2.65-1.61-3.75-2.25,1,0,2,0,3.26-.12a51.12,51.12,0,0,0,5.95-1.24c.87-.26,1.62-.43,2.31-.58s1.31-.25,1.84-.31a28.66,28.66,0,0,0,3.25-.51,95.13,95.13,0,0,0,14.49-4.43c2.64-1.08,5.31-1.81,8-2.7a92.68,92.68,0,0,0,11.2-4.58c.91-.44,1.82-.89,2.72-1.37s2-1,2.94-1.61c2-1.1,3.86-2.28,5.72-3.51a11,11,0,0,0,1.94-1.23l.31-.3,2.34-1.73.29-.24a32.48,32.48,0,0,1,2.86-2.31,16,16,0,0,0,1.32-1.13,9.08,9.08,0,0,0,1.3,2.12c.85,1.05,1.82,2,2.77,3s1.93,2,2.93,3,2,2,3,3,1.87,2.1,2.74,3.2q3.45,5,6.7,10.06l0,0c1.6,2.44,3.05,5,4.57,7.45.1.19,2.34,4.2,2.34,4.2.22.39,2.13,4,2.13,4,.53,1.06,1.05,2.16,1.56,3.26l.42.94c.45,1,.9,2.05,1.32,3.1.2.45.94,2.22,1.12,2.66.67,1.6,1.32,3.2,2.07,4.75.28.58.49,1.19.74,1.78l1.23,2.94c.39,1,.74,2,1.11,3s.72,2,1,3l.77,2.49.23.93c.16.78.31,1.53.47,2.33a43.49,43.49,0,0,0,1.35,5.16l.84,3.44a7.48,7.48,0,0,0-1.08.57,7.69,7.69,0,0,0-2.22,1.9c-1.79,2.71-3.13,5.24-5.52,7.23a27,27,0,0,0-2.42,2.94,54,54,0,0,1-9.58,8.27c-2.29,1.59-4.74,2.79-7,4.42a11.41,11.41,0,0,1-4.28,1.76,15.79,15.79,0,0,0-4.52,2.17l-.77.45a17.67,17.67,0,0,1-2.17,1.1l-1.71.66c-.87.26-1.9.42-2,.47-.39.16-2.82.8-3.18,1s-2.83,1.1-3.89,1.49c-1.89.68-3.73,1.42-5.57,2.17l-.13,0h0l-.56.23c-1.26.51-2.51,1-3.78,1.47a108.54,108.54,0,0,1-12.37,3.8c-1.47.36-3,.38-4.46.62-.76.13-1.94,0-2.73.21a5.42,5.42,0,0,0-.85.26,9.78,9.78,0,0,1-1.65-3.19c-.24-.9-1.13-1.53-1.65-2.33A67.16,67.16,0,0,1,95.52,278,30.67,30.67,0,0,0,92.88,272.51Zm-35.8-22.67c.46-.54.93-1.08,1.42-1.61a20.33,20.33,0,0,1,4.78-3.39c1.53-.84,3.1-1.64,4.69-2.42a28.45,28.45,0,0,1,3.1,4.14l2.36,5.71h0c1.21,2.85,2.42,5.7,3.59,8.58.18.43.34.88.5,1.33,0,.13.85,2.51,1.07,3.15h0A22.6,22.6,0,0,0,80,268.7l.45.91c1.9,3.63,3.59,7.4,5.4,11.05.87,1.79,1.22,3.89,2.62,5.35,1,1,1,2.32,1.72,3.38s.31,2.48.71,3.61c.5,1.43,1.37,2.7,2,4.08s1,2.7,1.54,4h0a8.93,8.93,0,0,1-4,1.17,39.33,39.33,0,0,1-6.54-1l0-.05c-1.11-.26-2.21-.57-3.3-.9-.82-1.1-1.63-2.2-2.4-3.32-.44-.64-.85-1.3-1.25-2a2.26,2.26,0,0,0-.16-.26c-1.19-2-2.28-4.17-3.63-6.09-.22-.32-.42-.65-.63-1a86.61,86.61,0,0,1-6.75-12.46c-1-2.11-1.34-4.6-2.78-6.47-1-1.31-1-2.83-1.72-4.17s-.26-2.92-.63-4.32c-.48-1.76-1.33-3.41-1.92-5.16s-.94-3.44-1.57-5.11A.91.91,0,0,0,57.08,249.84Zm-15,5c-.68-.4-2.62-1.49-2.95-1.67s-.67-.34-1-.52-.85-.5-1.29-.71a5.65,5.65,0,0,0-1.38-.48,3.33,3.33,0,0,1-1.44-.81,2.66,2.66,0,0,0-1.68-.51l-.31,0a3.34,3.34,0,0,1-.84-.12c-.18-.06-.37-.1-.55-.15h0c-.3-.13-.65-.35-.71-.36a6.19,6.19,0,0,0-1.11-.34c-.08,0-1-.17-1.41-.22a13.16,13.16,0,0,0-2.08-.17h-.16c-.51,0-1,0-1.52,0h-.35a67.53,67.53,0,0,1,3.4-7.41c1.77-3.28,4.14-6.35,6.13-9.59l.75-1.14c.79-1.3,1.68-2.53,2.58-3.76s1.84-2.42,2.83-3.58c.33-.34.63-.68,1-1,.71-.81,1.45-1.62,2-2.44l.06-.07c.64-.71,1.31-1.42,2-2.09a39.56,39.56,0,0,1,3-2.74,21.25,21.25,0,0,0,2.85-2.84,46.91,46.91,0,0,1,5.32-4.33c2.13-1.47,4.35-2.78,6.55-4.12.35-.22.4-.21.51-.28l.35-.12a3.23,3.23,0,0,1,.86-.08,7.24,7.24,0,0,1,2.43.58,18.3,18.3,0,0,1,5.38,3.69,24.54,24.54,0,0,1,4.32,5.41,16.88,16.88,0,0,1,1,2.16c.12.37.24.73.33,1.08.06.18.08.35.12.52l.06.26.06.33c.36,1.78.63,3.52.84,5.17,0,.39.1.8.11,1.18A11.57,11.57,0,0,1,78,227a7,7,0,0,1-.46,1.4c-.09.19-.19.37-.3.56a23.3,23.3,0,0,0-3,1.3l-.07,0c-1,.39-1.92.79-2.86,1.21-2.67,1.18-5.65,2-7.94,3.9-.16.11-1.33.82-2.69,1.65-.67.43-3.32,2.16-3.76,2.46A38.46,38.46,0,0,0,52.34,243a29.14,29.14,0,0,0-3.93,4.37,91,91,0,0,0-5.18,8A5.31,5.31,0,0,0,42,254.81ZM52.2,343.87l.29-.16a8,8,0,0,1,2.16-1.58,7.71,7.71,0,0,0,2.06-1.54c.89-1.09,1.89-2.1,2.71-3.25a16.78,16.78,0,0,0,2.63-6.26l1,.46c1.31.54,2.63,1,4,1.5,2.63.91,5.27,1.68,7.9,2.39,4.29,1.16,8.56,2.14,12.74,3.14,2.08.5,4.16,1,6.09,1.58l.07,0-6,.27a14.38,14.38,0,0,0-2.7.26,5.26,5.26,0,0,0-2,.95,5.48,5.48,0,0,0-1.47,1.69,5.8,5.8,0,0,0-.51,4.39,5.68,5.68,0,0,0,1.09,2c.58.68,1.34,1.29,2,1.93l5.29,4.91c1.23,1.16,2.6,2.37,3.54,3.38a4.71,4.71,0,0,1,1.5,2.63,2.87,2.87,0,0,1-.17,1.21,3.29,3.29,0,0,1-.75,1.19,4.94,4.94,0,0,1-1.34,1,3.91,3.91,0,0,1-.41.2l-.53.18a5.79,5.79,0,0,1-1.07.34c-2.89.8-6.29.33-9.83-1.22a52.9,52.9,0,0,1-10.94-7c-4.16-3.12-9.33-7.3-14.76-12.26l-2-1.9ZM22.63,298.69c.47,0,.95.07,1.44.08l3,0h.33a7,7,0,0,0,.79,0h0a4.05,4.05,0,0,0,.77-.16l.37-.09a30,30,0,0,0,4.37-1.6c.67-.32,1.48-.45,2-1.07a1.37,1.37,0,0,1,.37-.32A52.06,52.06,0,0,0,37.69,301c1.05,2.85,1.89,5.91,3.72,8.24,1.26,1.6,1.79,3.36,2.87,4.89a9.59,9.59,0,0,1,1.17,2.38,16.63,16.63,0,0,0,1.11,2.47,32.48,32.48,0,0,0,1.94,2.75c.69.88,1.4,1.74,2.06,2.64s1.27,1.72,1.88,2.59,1.27,1.7,2,2.52a2.49,2.49,0,0,0,.92.62c-.11.21-.22.43-.34.63a18.72,18.72,0,0,1-1.18,1.73c-.19.25-.42.57-.58.76a.88.88,0,0,0-.18.25,8.21,8.21,0,0,1-2.46,3.31,1.5,1.5,0,0,1-.64.19h-.14l-.13,0-.25.05c-2.84-2.14-6.35-3.84-9-6.52-1.85-2.1-3.62-4.28-5.27-6.55l0,0c-1.21-1.63-2.33-3.32-3.42-5l-1.94-3.27-1.28-2.38,0,0h0c-.36-.72-.69-1.45-1-2.19L27,310c-1-2.4-1.86-4.9-2.89-7.29l-.5-1.27C23.27,300.55,23,299.62,22.63,298.69Zm-3.5-16a3.18,3.18,0,0,0,1.08.31c.59,0,1.16.11,1.73.17a1.45,1.45,0,0,0,.87.11h0l.09,0c.63-.26,1,0,1.64,0s.88.07,1.31.15a34.2,34.2,0,0,0,5.24.37,7.7,7.7,0,0,0,1.92.13c.48-.09,1-.16,1.45-.21A53.13,53.13,0,0,0,35,290c-.25.11-.33.47-.52.68a7,7,0,0,1-1.07.91,11.86,11.86,0,0,1-1.21.69,8.75,8.75,0,0,0-1.65.74,1,1,0,0,1-1,.08c-.41-.14-.67.11-1,.3l-.18.1a1.72,1.72,0,0,1-.49.19c-.13,0-.27,0-.41,0a2.86,2.86,0,0,1-.44-.14c-.09,0-.63-.11-.71,0a3.93,3.93,0,0,1-.88,0l-1.27,0H24a7.39,7.39,0,0,1-.94,0,18.28,18.28,0,0,1-2-.27c0-.17-.09-.33-.12-.51-.09-.45-.18-.89-.24-1.37-.25-1.06-.42-2.13-.74-3.1l0-.07c-.2-.93-.33-1.89-.48-2.82A24.09,24.09,0,0,1,19.13,282.66Zm-.69-12c.07-1.23.22-2.45.36-3.67a1.75,1.75,0,0,1,.32,0c.75.05,1.51.14,2.26.25h0l1.52.24.25.05c.54.11,1.07.22,1.6.36.36.1.72.23,1.08.36l.57.22a6.85,6.85,0,0,0,1.31.41l.37.09a33.74,33.74,0,0,1,4.4,1.44c.71.27,1.31.84,2.11.85.56,0,.88.43,1.35.56a1,1,0,0,1,.2.11,36.13,36.13,0,0,0-1.52,7,.72.72,0,0,1-.65-.22c-.28-.21-.51-.07-.78.08a1.14,1.14,0,0,1-.51.17,14.07,14.07,0,0,1-1.94-.14c-.29-.05-.43-.15-.72-.19s-.46.17-.62.2c-.37.23-.54,0-.81,0a8.4,8.4,0,0,0-1.73.12,1.74,1.74,0,0,1-.95-.15,22.8,22.8,0,0,0-2.66-.54c-.07-.06-.14-.11-.22-.08h0l-.31-.07h0a1.34,1.34,0,0,0-1-.1,1.16,1.16,0,0,1-.45.05c-.11-.07-.53-.33-.58-.35s-.36-.29-.44-.24a2.21,2.21,0,0,1-.57-.18,6.14,6.14,0,0,0-.84-.23H18.7l-.2,0c0-.52-.08-1.38-.12-2.34C18.31,273.21,18.39,271.6,18.44,270.66Z"/><path class="cls-2" d="M97.67,210.13a6,6,0,0,0,0,3.52l1,3.36q.39,1.23.75,2.49c.26.84.56,1.7.83,2.56.62,1.75,1.28,3.53,2.06,5.26.18.41,3.45,7.65,4,9,.19.42.36.83.54,1.26a17.85,17.85,0,0,0,1.51,2.7l0,.06c.47.79.93,1.6,1.44,2.35.71,1.09,1.43,2.21,2.22,3.26a12.48,12.48,0,0,0,2.69,2.65c.14.08,1,.9,2,1.7a10.89,10.89,0,0,0,3.33,1.69,9.26,9.26,0,0,0,3.09.33,14.07,14.07,0,0,0,3-.54c1-.23,1.9-.74,2.95-1,.52-.13,1-.24,1.56-.39l1.55-.49c1.37-.38,2.73-.8,4.09-1.26s2.74-1,3.91-1.47a74.62,74.62,0,0,0,7.1-3.41,50.53,50.53,0,0,0,8.56-5.41c.31-.26.64-.51.94-.78q3-2.64,5.89-5.45l.45-.41.56-.51a10.08,10.08,0,0,0,2-2.84l0-.08a15.65,15.65,0,0,0,1.26-2.84,17.64,17.64,0,0,0,.9-4.34,8.38,8.38,0,0,0,0-1.12c0-.32,0-.63-.06-1a10,10,0,0,0-.36-1.9c0-.17-.21-1.35-.54-2.69a20.8,20.8,0,0,0-1.24-3.63c-.22-.49-6.21-12.25-6.78-13.28-2.28-4.13-4.71-8.17-8.43-11a28.45,28.45,0,0,0-4.62-2.78,9.26,9.26,0,0,0-5.28-1,8.88,8.88,0,0,0-1.27.23c-2.27,1.51-7.8,5.14-8.19,5.39a28.45,28.45,0,0,0-2.52,1.88l-.08.05c-.77.53-1.54,1.06-2.33,1.56l-1.26.77-1.85,1a15.72,15.72,0,0,0-2.77,1.73,18.86,18.86,0,0,1-2,1.14l-.79.42-.91.44c-.59.28-1.12.53-1.55.71-2.29,1-4.65,1.9-6.91,2.93-1.1.51-2.23,1-3.28,1.57l-1.6.79a10,10,0,0,0-1.45,1.07A15.44,15.44,0,0,0,99.4,207,9.38,9.38,0,0,0,97.67,210.13Zm7.71,3.42a10.17,10.17,0,0,1,.2-1.4,5.21,5.21,0,0,1,.49-1.3c.67-1.5,1.75-1.83,2.72-2.57a5.57,5.57,0,0,1,.81-.56l2.72-1.19c1.2-.54,2.39-1.1,3.54-1.75a36.31,36.31,0,0,1,4.2-1.79c.48-.19,1.14-.49,1.71-.74s1.17-.53,1.74-.82c1.17-.55,2.31-1.17,3.44-1.79l1.68-1,1.35-.82c.89-.56,1.78-1.12,2.65-1.7a3.61,3.61,0,0,0,.89-.55l.16-.15,1.26-.88a7.1,7.1,0,0,1,1.39-1,5.21,5.21,0,0,0,.93-.69c.48-.41,1-.9,1.5-1.44l.5-.5a3.88,3.88,0,0,1,1.7-.42,6.14,6.14,0,0,1,2.2.42,17.16,17.16,0,0,1,2,1,13,13,0,0,1,3.54,2.77,20.31,20.31,0,0,1,1.93,2.81c.39.6,1.28,1.52,1.69,2.12,1.07,1.21,1.2,2.22,1.8,3.3l1.94,3.52c.76,1.38,1.54,2.75,2.39,4.08.17.27.34.55.5.83l.4.74a11.13,11.13,0,0,1,1,2.66,20,20,0,0,1,.47,3.15q.06.79.09,1.59v.4c0,.14,0,.29,0,.38s0,.44,0,.66a8.52,8.52,0,0,1-1.91,4.8,3.48,3.48,0,0,0-.64.63,1.3,1.3,0,0,1-.1.15c-.4.38-1.27,1.18-1.29,1.19a7.49,7.49,0,0,1-1.48,1.29,6.26,6.26,0,0,0-1,.86c-.49.5-1,1-1.52,1.56l-.49.52a10.9,10.9,0,0,1-1.44,1.28,52,52,0,0,1-8.51,5.14c-1.35.61-2.07.83-3.44,1.39-.71.31-2.07,1.16-2.74,1.48a12.19,12.19,0,0,1-3.55,1.24c-.4.14-.79.28-1.2.4s-1.07.34-1.62.49a6,6,0,0,0-1.59.57,17.58,17.58,0,0,1-3.22,1.33,4.59,4.59,0,0,1-2.26.13,5.36,5.36,0,0,1-2-.92,29.85,29.85,0,0,1-7.51-10.17,3.6,3.6,0,0,0-.41-1l-.12-.17c-.2-.45-.61-1.4-.62-1.41a7.84,7.84,0,0,1-.67-1.69,8.75,8.75,0,0,0-.51-1.28c-.34-.69-.62-1.18-1-1.78l-.32-.56a12.61,12.61,0,0,1-.78-1.56s-2.48-6.62-3-8.28A6.28,6.28,0,0,1,105.38,213.55Z"/><path class="cls-2" d="M84.58,130.48A2.49,2.49,0,0,0,85,132.3a1.8,1.8,0,0,1,2.26-.24,1.76,1.76,0,0,1,1,1.17c1,2.35-1.62,3.72-3.4,3C83,135.46,82.09,131.67,84.58,130.48Z"/><path class="cls-2" d="M101.91,126.5c-3.51.88-6-5.16-2.24-6.22a1.8,1.8,0,0,0,.3,2c.75-.8,2.68-.65,3.43,1.54A2.2,2.2,0,0,1,101.91,126.5Z"/><path class="cls-2" d="M90.52,123.15a1.6,1.6,0,0,1,1.21-.17,4.69,4.69,0,0,1,1.38,1c.5.5,1,1,1.54,1.5a41.74,41.74,0,0,0,7,5l2.94,1.77c.21.12.29.2.4.27l.89.65c.19.12.34.26.51.39s.42.23.31.48c-.06.44-.1.86-.2,1.29a5.62,5.62,0,0,1-.15.62l-.13.44c-.1.28-.21.56-.33.83a14.59,14.59,0,0,1-.84,1.56c-.15.25-.32.49-.48.73l-.26.35-.11.18c-.16.25-.31.5-.45.76-.44.77-1.74,1-2.65,1.33a1.23,1.23,0,0,1-.82-1.46,3.08,3.08,0,0,1,1.24-2.2c.15-.1.28-.21.42-.31l.2-.17.15-.15.18-.19a6.67,6.67,0,0,0,1.12-1.75,6.53,6.53,0,0,0,.24-.7,1,1,0,0,0,0-.17c0-.06-.07-.07-.1-.1l-.1-.06-.39-.27-3.18-1.83a53.06,53.06,0,0,1-6.46-4.28c-.33-.27-.65-.53-1-.83a19.73,19.73,0,0,1-2.39-3.31C90,123.82,90.09,123.4,90.52,123.15Z"/><path class="cls-2" d="M96.88,150.2a17.8,17.8,0,0,1,3.29.67,9.48,9.48,0,0,0,2.32.33,6.4,6.4,0,0,0,2.22-.44,9.34,9.34,0,0,0,2.09-1.19,10.25,10.25,0,0,0,.88-.71,4.7,4.7,0,0,0,.58-.77,22.79,22.79,0,0,0,1.89-5.35c.44-.81.85-1.88,1.77-1.34.46.28.7,1.63.66,2.89a10.46,10.46,0,0,1-1.11,4.35,8.1,8.1,0,0,1-1.4,2c-.16.16-.3.31-.48.46a5.27,5.27,0,0,1-.48.37l-.88.62a12.8,12.8,0,0,1-3.76,1.71,14.77,14.77,0,0,1-4.13.31,10.64,10.64,0,0,1-5.41-1.74,1.94,1.94,0,0,1-.84-1,1.27,1.27,0,0,1,.29-1C95,149.94,95.71,150.2,96.88,150.2Z"/><path class="cls-2" d="M158.88,37Z"/></g></g></g></g></svg>