<svg xmlns="http://www.w3.org/2000/svg" viewBox="0 0 1587.32 662.06"><defs><style>.cls-1{fill:#fff;}</style></defs><g id="Layer_2" data-name="Layer 2"><g id="Stars_and_Sky" data-name="Stars and Sky"><g id="Small_Stars" data-name="Small Stars"><g id="Small_Stars-2" data-name="Small Stars"><path class="cls-1" d="M244.23,22c2-.9,3,.36,4.43,1.31.89.6-.73,3.34-2.41,4.09-.74.39-3-.54-3.21-1.5C242.05,24.42,241.89,23.41,244.23,22Z"/><path class="cls-1" d="M135.21,167.48a4.87,4.87,0,0,1,2.23-1.36,6.47,6.47,0,0,1,3.6,2.39c.37.5-.35,2.21-1,3a3,3,0,0,1-2.57.86C135.46,171.78,133.66,169.14,135.21,167.48Z"/><path class="cls-1" d="M158.85,183.84a4,4,0,0,1,1.31,1.62,7.27,7.27,0,0,1,1.26,3.71c-.07,2.16-2.25,2.91-4,3.21-2.72.44-3.66-.08-4.59-2.7a5.18,5.18,0,0,1-.2-3.63C153.19,184.58,157.43,183,158.85,183.84Z"/><path class="cls-1" d="M284.68,205.43c-2.47-3.78-1.76-5.73,2.68-7.21,1.25-.42,5.18-.2,6.46,1.14s.83,4.86.26,6.61a3.26,3.26,0,0,1-.7,1.17C291.17,209.59,286.24,207.81,284.68,205.43Z"/><path class="cls-1" d="M24.51,1.8c.82-1.6,2.9-2,4.54-1.68,2.44.54,5,4.63,4.55,7-.48,2.68-6.09,6-8.21,3.25-1.05-1.36-3.17-2.84-2.93-4.73C22.62,4.44,23.94,2.91,24.51,1.8Z"/><path class="cls-1" d="M270.64,31.05c1.61-.27,4,2.37,4.15,4.15.23,2.24-.82,5.17-3,6.07a3.6,3.6,0,0,1-.66.2C264.06,42.89,263.87,32.19,270.64,31.05Z"/><path class="cls-1" d="M57.33,239.72c-3.1-1.44-2.7-3.83-1-6.24,1.13-1.57,2.3-.95,4-.84,2.22.15,3.4,2.52,2.88,4.82C62.58,240.23,59.64,240.79,57.33,239.72Z"/><path class="cls-1" d="M192.77,115.08c.37-.67,2.32-1.27,3-1.4a2.24,2.24,0,0,1,2,.57,3.23,3.23,0,0,1-.23,4c-1.22,1.16-3.57.36-4.74-1.76A1.49,1.49,0,0,1,192.77,115.08Z"/><path class="cls-1" d="M112.64,54.46l.06-.14a2,2,0,0,1,.47-.54c1.2-1,2.43-1.69,3.76-.47a2.39,2.39,0,0,1,.22,3.31,1.86,1.86,0,0,1-.93.71c-1,.28-2.65-1.11-3.28-1.81A1.17,1.17,0,0,1,112.64,54.46Z"/><path class="cls-1" d="M185.82,591.11a5.74,5.74,0,0,1-.1,3.31c-.45,1.09-2.41,1.7-3.52,1.68a2.59,2.59,0,0,1-2.29-1.4,1.87,1.87,0,0,1,0-1.57,6.46,6.46,0,0,1,3.17-2.77C183.8,590.05,185.7,590.62,185.82,591.11Z"/><path class="cls-1" d="M145.72,634.77a3.53,3.53,0,0,1,3.49,1.86,2.22,2.22,0,0,1,.11.39c.7,4.14-5.54,4.07-6.09.1C143.1,636.18,144.68,634.84,145.72,634.77Z"/><path class="cls-1" d="M244.51,285.45a2.49,2.49,0,0,1,2.4.7c2,1.79.54,3.46-1.1,4.48-1,.65-2,1.08-3-.06C241.27,288.82,242.59,286,244.51,285.45Z"/><path class="cls-1" d="M175.52,444.09c-.11-.9-.5-.86.39-2.58,1.28-1.58,2.1-.93,3.27-.85.58,0,1.19.72,1.66,1.23a1.38,1.38,0,0,1,.07,1.09c-.11.41-.47.76-.61,1.17a2.55,2.55,0,0,1-4.48,1A2.08,2.08,0,0,1,175.52,444.09Z"/><path class="cls-1" d="M181,394.92a1.86,1.86,0,0,1,1.36,1.11c.31.91-.79,3.22-1.27,4a2.83,2.83,0,0,1-2.26,1.4c-1.93,0-3.47-2.26-3.49-3.6C175.29,395.69,178,394.2,181,394.92Z"/><path class="cls-1" d="M1.07,457.07c1.91,3.47,1.12,6-1.07,7.21v-8.65A6.65,6.65,0,0,1,1.07,457.07Z"/><path class="cls-1" d="M197,416.35c1.4-1.05,5.61-1.58,7.56-.93,2.77.91,3.33,4.17,2.2,6.58-.13.29-1.55,1.79-1.71,2C201.67,429,193.11,419.32,197,416.35Z"/><path class="cls-1" d="M47.8,282.7c1.42-2,2.89-1.19,5-1.05,2.79.18,4.27,3.15,3.62,6.05-.78,3.48-4.47,4.18-7.37,2.83C45.11,288.72,45.62,285.73,47.8,282.7Z"/><path class="cls-1" d="M170.86,617c.91-.48,2.63.58,4.81,1.17.1.1,1.21.73,1.28,1.45.37,4.3.49,9.08-5.95,7.3-1.82-.51-3.48-3.69-4-5.93C166.75,620,169.23,617.89,170.86,617Z"/><path class="cls-1" d="M297.84,630.52c0,.13.06.27.08.41.32,2.15-.58,5.07-3,5.31-4,.4-5.09-.58-4.67-4.25.2-1.72,1.53-2.55,3.07-3C295.19,628.54,297.25,628,297.84,630.52Z"/><path class="cls-1" d="M24.83,264.32a2.94,2.94,0,0,1,.14-.53c.66-1.77,3-2.67,4.77-2.54,1.41.1,3.57,1.93,3.39,3.21C32.38,269.88,23.86,270,24.83,264.32Z"/><path class="cls-1" d="M267.05,372.9a3.75,3.75,0,0,1,2.7-.78c2.37.12,4.91,1.79,4.19,4.22-.44,1.46-3.42,2.56-5.45,3C266,379.87,265.65,374.11,267.05,372.9Z"/><path class="cls-1" d="M129.26,589.26c2.72.79,5.05,5.57,2.5,7.74-1.18,1-3.89.91-5.23.21-1.83-1-2-3-1.67-4.82C125.17,590.75,126.72,588.19,129.26,589.26Z"/><path class="cls-1" d="M268.94,517.47c-.38,2.14-4.85,4.78-6.54,2.59-.84-1.08-2.52-2.26-2.33-3.77.12-1,1.17-2.21,1.63-3.09a3.24,3.24,0,0,1,3.62-1.34C267.26,512.29,269.28,515.55,268.94,517.47Z"/><path class="cls-1" d="M23.65,291c5,.77,7.63.26,6.69,7.93-.26,2.06-3.81,4.37-6.31,5.29s-6.09-3.72-6-6.67C18.05,294.45,21.14,290.63,23.65,291Z"/><path class="cls-1" d="M44,306.74a2,2,0,0,1,1.07,1.53,2.62,2.62,0,0,1-2.06,2c-.43,0-3-.83-3.16-1.39C40.68,306.56,41.41,305.08,44,306.74Z"/><path class="cls-1" d="M148.67,304.38a2.09,2.09,0,0,1-.39-1.71c.52-1.84,4.31-2.25,4.83-.19a2.4,2.4,0,0,1-3,2.94A2.43,2.43,0,0,1,148.67,304.38Z"/><path class="cls-1" d="M777.92,171.64c.83-.7,3-.14,3.82.28,1.13.56,1.42,4.69.64,4.76-1.29.11-3.32.31-4.52-.27C776.33,175.67,777.09,172.72,777.92,171.64Z"/><path class="cls-1" d="M1582.65,22c2-.9,3,.36,4.42,1.31.89.6-.72,3.34-2.41,4.09-.74.39-3-.54-3.21-1.5C1580.46,24.42,1580.3,23.41,1582.65,22Z"/><path class="cls-1" d="M347.47,176.87a2.23,2.23,0,0,1,2.57-1.21,4.41,4.41,0,0,1,1.19.49,3.41,3.41,0,0,1,1.53,3.63c-.3,2.35-4.47,2.53-5.49.71A3.74,3.74,0,0,1,347.47,176.87Z"/><path class="cls-1" d="M1122.2,51.51c-1.87.3-2.51-.06-3.15-1.86a3.52,3.52,0,0,1-.14-2.49c.41-1,3.33-2.11,4.3-1.52a2.72,2.72,0,0,1,.9,1.11,5,5,0,0,1,.87,2.56C1124.93,50.79,1123.43,51.31,1122.2,51.51Z"/><path class="cls-1" d="M964.14,116.78c2.59.65,2.07,5.41-.24,6.06a2.66,2.66,0,0,1-2.15-.48,3.1,3.1,0,0,1-1.3-1.84A3,3,0,0,1,964.14,116.78Z"/><path class="cls-1" d="M1473.62,167.48a4.87,4.87,0,0,1,2.23-1.36,6.4,6.4,0,0,1,3.6,2.39c.38.5-.35,2.21-1,3a3,3,0,0,1-2.58.86C1473.87,171.78,1472.08,169.14,1473.62,167.48Z"/><path class="cls-1" d="M1155.33,197.19c.13-.09,1-.95,1.15-1,1.39-.7,3.3-.42,3.88,1.17a6.63,6.63,0,0,1-.43,4.43C1158.27,204.09,1152.5,199.26,1155.33,197.19Z"/><path class="cls-1" d="M983.15,86a4.81,4.81,0,0,1,1.23,4.4c-.26,1.51-1.56,5.71-3,6.49a3.19,3.19,0,0,1-3-.18c-4.56-2.53-6.27-7.57-3.78-10.21C976.15,84.86,980.7,83.81,983.15,86Z"/><path class="cls-1" d="M806.32,203c-.82-1.22,1.19-6.33,2.49-6.56a16.51,16.51,0,0,1,6.4.53,3,3,0,0,1,2.13,1.86,3.29,3.29,0,0,1,0,1.62,7.18,7.18,0,0,1-3.76,5.07C811.22,206.61,808.33,206,806.32,203Z"/><path class="cls-1" d="M1196.21,201.2a3.28,3.28,0,0,1,0,2.69,4.44,4.44,0,0,1-3.94,2.4c-1.9,0-5.26-1-6-2.88a9.87,9.87,0,0,1-.17-5.67c.21-.84,3.46-1.82,4.69-1.29C1192.52,197.22,1195.3,199,1196.21,201.2Z"/><path class="cls-1" d="M1297.59,144.4a3.9,3.9,0,0,1,.18-.67c.84-2.22,3.74-3.34,6-3.18,1.78.13,4.49,2.42,4.26,4C1307.08,151.38,1296.38,151.5,1297.59,144.4Z"/><path class="cls-1" d="M577.65,187.2c3,.15,6.16,2.25,5.25,5.3-.54,1.83-4.28,3.21-6.83,3.76-3.15.67-3.56-6.56-1.81-8.08A4.74,4.74,0,0,1,577.65,187.2Z"/><path class="cls-1" d="M1497.26,183.84a4,4,0,0,1,1.31,1.62,7.37,7.37,0,0,1,1.27,3.71c-.08,2.16-2.26,2.91-4,3.21-2.71.44-3.65-.08-4.59-2.7a5.18,5.18,0,0,1-.19-3.63C1491.6,184.58,1495.84,183,1497.26,183.84Z"/><path class="cls-1" d="M706.61,71.09c-2.28-1.2-2.53-3.73-2.09-6,.39-2.06,2.34-5.27,5.53-3.92,3.41,1,6.34,7,3.14,9.7C711.71,72.08,708.3,72,706.61,71.09Z"/><path class="cls-1" d="M411.79,75c3.38.49,4.21,3.28,3.92,6.34-.15,1.54-4,3.28-5.28,3.46-2.89.39-4.94-5-4.47-7.56C406.34,75.16,410.13,74.72,411.79,75Z"/><path class="cls-1" d="M1362.92,1.8c.83-1.6,2.9-2,4.54-1.68,2.44.54,5,4.63,4.55,7-.47,2.68-6.09,6-8.21,3.25-1-1.36-3.17-2.84-2.93-4.73C1361,4.44,1362.35,2.91,1362.92,1.8Z"/><path class="cls-1" d="M1152.63,32.4c.7,1.47-.26,4.21-1,5.47-2.76,4.59-7.9-.26-9.09-3.59-.06-.17-.11-.34-.15-.5C1140.84,28,1150.6,28.09,1152.63,32.4Z"/><path class="cls-1" d="M637.21,233.47c1.26-1.33,4.88-2.17,6.83-.4a3.84,3.84,0,0,1,1,3.51c-.21,1.2-1.24,4.54-2.4,5.17a2.57,2.57,0,0,1-2.39-.15C636.59,239.59,635.23,235.57,637.21,233.47Z"/><path class="cls-1" d="M1395.74,239.72c-3.1-1.44-2.69-3.83-1-6.24,1.13-1.57,2.31-.95,4-.84,2.22.15,3.4,2.52,2.88,4.82C1401,240.23,1398.05,240.79,1395.74,239.72Z"/><path class="cls-1" d="M996.31,226.25a3.39,3.39,0,0,1,1.91,2.58c0,1.44-2,3.37-3.43,3.51-.75.07-5.26-1.27-5.5-2.24C990.61,226.11,991.79,223.54,996.31,226.25Z"/><path class="cls-1" d="M1009.66,95.77a2.55,2.55,0,0,1,1.86,1.51c.43,1.25-1.07,4.41-1.73,5.43a3.83,3.83,0,0,1-3.09,1.92c-2.64,0-4.74-3.09-4.76-4.91C1001.9,96.83,1005.62,94.79,1009.66,95.77Z"/><path class="cls-1" d="M798.28,162.82c.9-2.27,3.25-5,5.56-5.88s4.83.23,6.42,2.11a20.34,20.34,0,0,1,3.38,4.7c.42,1-.26,2.46-.63,3.66a8.83,8.83,0,0,1-1.38,2.76c-1.21,1.57-2.52,4.17-3.89,4.24-2.13.1-4.39-1.48-6.54-2.47-1.11-.51-2.92-1.16-3-1.94C797.85,167.88,797.49,164.85,798.28,162.82Z"/><path class="cls-1" d="M374.52,196.13c2.91-.48,7.94,5.71,7.4,8.88-.6,3.5-4,6.84-9,7-5.21.2-7.19-1.25-7.3-6.66a35.31,35.31,0,0,1,3.65-5.84A10,10,0,0,1,374.52,196.13Z"/><path class="cls-1" d="M1531.19,115.08c.36-.67,2.31-1.27,3-1.4a2.27,2.27,0,0,1,2,.57,3.26,3.26,0,0,1-.23,4c-1.23,1.16-3.57.36-4.75-1.76A1.48,1.48,0,0,1,1531.19,115.08Z"/><path class="cls-1" d="M1090,236.72c.48-.71,2.66.58,3.26,1.92.31.59-.43,2.4-1.19,2.56-1.18.79-2,.91-3.11-.95C1088.22,238.67,1089.22,237.84,1090,236.72Z"/><path class="cls-1" d="M534.52,86.83a2.15,2.15,0,0,1,2.81,1.68c.07,1,.43,1.65-.48,2.31-1.41,1-2.8,1.25-3.64-.56C532.58,88.91,532.91,87.19,534.52,86.83Z"/><path class="cls-1" d="M506.47,218.45c.23-.83,2.71-.33,3.71.74.49.46.38,2.41-.29,2.81-.86,1.13-1.57,1.51-3.25.12C505.45,220.86,506.13,219.74,506.47,218.45Z"/><path class="cls-1" d="M1168.25,216.74c.8-1,2.41-1.75,3.47-.82,1.73,1.54,1.75,2.42,0,3.69a2.09,2.09,0,0,1-2.48-.15c-.94-.6-2-1.28-1.14-2.53Z"/><path class="cls-1" d="M1451.06,54.46a.35.35,0,0,1,.06-.14,1.81,1.81,0,0,1,.46-.54c1.2-1,2.44-1.69,3.76-.47a2.38,2.38,0,0,1,.22,3.31,1.83,1.83,0,0,1-.92.71c-1,.28-2.66-1.11-3.28-1.81A1.14,1.14,0,0,1,1451.06,54.46Z"/><path class="cls-1" d="M1524.23,591.11a5.74,5.74,0,0,1-.1,3.31c-.45,1.09-2.4,1.7-3.51,1.68a2.6,2.6,0,0,1-2.3-1.4,1.91,1.91,0,0,1,0-1.57,6.46,6.46,0,0,1,3.17-2.77C1522.21,590.05,1524.11,590.62,1524.23,591.11Z"/><path class="cls-1" d="M583.06,472c2.08,3.25.22,4.17-2.67,5.22-.71-.16-1.79-3.43-1.75-4a3.29,3.29,0,0,1,2.5-2.58A2.45,2.45,0,0,1,583.06,472Z"/><path class="cls-1" d="M1484.13,634.77a3.52,3.52,0,0,1,3.49,1.86,1.6,1.6,0,0,1,.11.39c.71,4.14-5.53,4.07-6.08.1C1481.51,636.18,1483.09,634.84,1484.13,634.77Z"/><path class="cls-1" d="M1148.11,536.26c-.32,1.07-2.5,1.88-4,2.19-1.83.39-2.08-3.82-1-4.71a2.76,2.76,0,0,1,2-.57C1146.78,533.26,1148.64,534.48,1148.11,536.26Z"/><path class="cls-1" d="M1582.92,285.45a2.49,2.49,0,0,1,2.4.7c2,1.79.55,3.46-1.1,4.48-1,.65-2,1.08-3-.06C1579.68,288.82,1581,286,1582.92,285.45Z"/><path class="cls-1" d="M1097.78,471.4c-2-.52-3.29-3-2.49-4.4a6.41,6.41,0,0,1,1.39-1.38c3.34-.1,4.62,1.36,3.78,4.09A3.23,3.23,0,0,1,1097.78,471.4Z"/><path class="cls-1" d="M1513.93,444.09c-.1-.9-.5-.86.4-2.58,1.27-1.58,2.09-.93,3.26-.85.59,0,1.19.72,1.66,1.23a1.34,1.34,0,0,1,.07,1.09c-.11.41-.47.76-.61,1.17a2.55,2.55,0,0,1-4.48,1A2.18,2.18,0,0,1,1513.93,444.09Z"/><path class="cls-1" d="M1293.74,620.93c.83-1.15,1.69-.69,2.89-.61,1.62.11,2.49,1.84,2.11,3.53-.45,2-2.61,2.44-4.3,1.65C1292.17,624.45,1292.47,622.7,1293.74,620.93Z"/><path class="cls-1" d="M630.1,505.26a3,3,0,0,1,4.16.27c1.53,1.67.68,3.21-.6,4.72a2.32,2.32,0,0,1-.66.59l-.19.07a1.44,1.44,0,0,1-1.32-.37c-.88-.79-2.63-2.87-2.27-4.12A2.3,2.3,0,0,1,630.1,505.26Z"/><path class="cls-1" d="M1333,638.2c-1.76-.84-2.14-3.73-1.09-5.4a2.49,2.49,0,0,1,1.34-1.09,3.23,3.23,0,0,1,2.44.21,3.7,3.7,0,0,1,1.74,4.53A3.42,3.42,0,0,1,1333,638.2Z"/><path class="cls-1" d="M1519.39,394.92a1.84,1.84,0,0,1,1.36,1.11c.32.91-.78,3.22-1.26,4a2.83,2.83,0,0,1-2.27,1.4c-1.93,0-3.47-2.26-3.49-3.6C1513.71,395.69,1516.43,394.2,1519.39,394.92Z"/><path class="cls-1" d="M760,597.38c1.11-3.66,6.49-8.82,8.92-3,.89,2.14.8,5.14,1,7.45a.72.72,0,0,1-.3.53c-1.26,1.16-5.73,2.84-7.39,1.94C760.43,603.36,759.47,599.21,760,597.38Z"/><path class="cls-1" d="M1332,457.39c1.9-2.8,5.21-4.43,7.49-.32,3.19,5.76-1.09,9.07-6.86,7.57C1329.64,463.87,1330.16,460.09,1332,457.39Z"/><path class="cls-1" d="M1140.73,462.74c-1.64-2.4-.11-5.33,2.25-6.57.28-.14,2.33-.48,2.58-.56,5.72-1.86,6.67,11,1.75,11C1145.56,466.58,1141.89,464.44,1140.73,462.74Z"/><path class="cls-1" d="M1535.44,416.35c1.4-1.05,5.61-1.58,7.57-.93,2.76.91,3.32,4.17,2.2,6.58-.13.29-1.56,1.79-1.71,2C1540.08,429,1531.52,419.32,1535.44,416.35Z"/><path class="cls-1" d="M663,322c.3-3.58,4.67-5.56,7.87-4.09a3.49,3.49,0,0,1,2,2.3,12.32,12.32,0,0,1,.21,3.64,4.35,4.35,0,0,1-.41,2.06c-1,1.72-5.77,1.27-7.27.68C663.34,325.78,662.79,324.49,663,322Z"/><path class="cls-1" d="M1386.21,282.7c1.42-2,2.89-1.19,5-1.05,2.78.18,4.26,3.15,3.61,6.05-.78,3.48-4.46,4.18-7.37,2.83C1383.52,288.72,1384,285.73,1386.21,282.7Z"/><path class="cls-1" d="M366.47,419.55c4.44,1.12,3.56,9.26-.41,10.38a4.47,4.47,0,0,1-3.68-.82,5.23,5.23,0,0,1-2.23-3.16A5.16,5.16,0,0,1,366.47,419.55Z"/><path class="cls-1" d="M1509.28,617c.9-.48,2.62.58,4.8,1.17.1.1,1.22.73,1.28,1.45.37,4.3.5,9.08-5.94,7.3-1.83-.51-3.49-3.69-4-5.93C1505.17,620,1507.64,617.89,1509.28,617Z"/><path class="cls-1" d="M421.1,577.57c.64-.07,2.48,1.16,3.22,2,2.24,2.39-.36,6.22-3.23,7.06a4.35,4.35,0,0,1-3.72-1.23c-.95-1.15-2-3.61-1.46-4.34C416.85,579.77,419.11,577.79,421.1,577.57Z"/><path class="cls-1" d="M1318.65,645.31c.84,1.06,3.11,2.61,3.12,4.18,0,2.9-4.89,6.07-7,4.73-1.76-1.11-3.63-3.43-3.77-5.34C1310.78,646.37,1315.46,644.2,1318.65,645.31Z"/><path class="cls-1" d="M602.37,459.29c1.42-2,2.89-1.18,5-1,2.78.18,4.26,3.15,3.62,6-.78,3.48-4.47,4.18-7.38,2.84C599.68,465.32,600.19,462.32,602.37,459.29Z"/><path class="cls-1" d="M906.82,405.43c-1.31,1.09-4.35,1.24-6,.48-1.42-.67-2-3.22-2.88-4.94,1.56-5.14,6-5,8-3.82C909.61,399.24,909.76,403,906.82,405.43Z"/><path class="cls-1" d="M388.5,264.45c2,2.27.37,5.74-1.76,7.45-.13.11-.27.21-.41.31-2.68,1.8-4.14-.43-5.43-2.46-1.08-1.69-1.61-3.58-.33-5.34C383.3,260.67,385.19,260.71,388.5,264.45Z"/><path class="cls-1" d="M1097.68,525a2.08,2.08,0,0,1-.32.12,2.44,2.44,0,0,1-2.27-.64c-1.5-1.34-4.5-4.91-3.89-7.06a4.05,4.05,0,0,1,1.51-2,5.15,5.15,0,0,1,7.14.47c2.61,2.86,1.16,5.51-1,8.09A3.92,3.92,0,0,1,1097.68,525Z"/><path class="cls-1" d="M463.37,502.36c1.21.72,2.38,1.83,2.4,3.23,0,1.81-2.53,4.23-4.31,4.4-.94.09-6.59-1.59-6.9-2.8C456.21,502.18,457.69,499,463.37,502.36Z"/><path class="cls-1" d="M850.49,625.45a2.54,2.54,0,0,1,.48-1c1.37-1.77,7.66-2.77,9.28-1a6.61,6.61,0,0,1,1.27,2.59,6.43,6.43,0,0,1,.38,4c-.79,2.2-7,2.45-8.7,1.34S850,627.54,850.49,625.45Z"/><path class="cls-1" d="M1322,439.51c.7,1.71.63,4.1.79,5.93a.56.56,0,0,1-.23.43c-1,.92-4.57,2.26-5.89,1.55s-2.23-4.1-1.78-5.55C1315.75,439,1320,434.84,1322,439.51Z"/><path class="cls-1" d="M317,363.14c-.65-1,.95-5,2-5.22a13.13,13.13,0,0,1,5.1.42,2.37,2.37,0,0,1,1.69,1.48,2.56,2.56,0,0,1,0,1.29,5.71,5.71,0,0,1-3,4C320.94,366,318.64,365.53,317,363.14Z"/><path class="cls-1" d="M481.75,381c1.84-.63,4.81.82,5.27,2.71.58,2.41-1.71,4.31-3.91,4.12-1.41-.13-3.8-.77-4.12-2.51A4.81,4.81,0,0,1,481.75,381Z"/><path class="cls-1" d="M1363.24,264.32a2.94,2.94,0,0,1,.14-.53c.67-1.77,3-2.67,4.77-2.54,1.42.1,3.58,1.93,3.4,3.21C1370.8,269.88,1362.27,270,1363.24,264.32Z"/><path class="cls-1" d="M1278.44,367c1.16-2.79,4.37-3.11,6.24-.69.37.48,1,.77,1.32,1.25a1.86,1.86,0,0,1,.39,1.44c-.38.86-.85,2-1.59,2.33-1.47.62-2.24,1.83-4.59.36-1.92-1.82-1.4-1.95-1.66-3.16A2.91,2.91,0,0,1,1278.44,367Z"/><path class="cls-1" d="M1467.68,589.26c2.71.79,5,5.57,2.49,7.74-1.17,1-3.89.91-5.23.21-1.82-1-2-3-1.67-4.82C1463.58,590.75,1465.13,588.19,1467.68,589.26Z"/><path class="cls-1" d="M976.53,278.4c2.22.15,3.4,2.51,2.88,4.82-.62,2.77-3.56,3.33-5.87,2.26-3.1-1.44-2.7-3.83-1-6.24C973.71,277.67,974.89,278.29,976.53,278.4Z"/><path class="cls-1" d="M860.12,409.2a3.39,3.39,0,0,1,3.28.95c2.67,2.44.75,4.73-1.5,6.12-1.42.88-2.76,1.48-4.12-.09C855.7,413.8,857.5,409.9,860.12,409.2Z"/><path class="cls-1" d="M1059.92,349.83c.89-1.19,3-3.07,4.91-3.27.6-.06,2.34,1.09,3,1.85,2.11,2.27-.34,5.88-3.06,6.68a4.11,4.11,0,0,1-3.51-1.16C1060.4,352.84,1059.4,350.51,1059.92,349.83Z"/><path class="cls-1" d="M549.59,349.43c.68.84,2.48,2.08,2.49,3.33,0,2.31-3.9,4.83-5.6,3.76-1.4-.87-2.89-2.73-3-4.25C543.33,350.28,547.06,348.54,549.59,349.43Z"/><path class="cls-1" d="M492.55,346.16c2.89,1.67,3,4.65.66,6.6a5.36,5.36,0,0,1-4.76.38c-1.13-.53-1.56-2.56-2.3-3.93C487.4,345.11,491,345.26,492.55,346.16Z"/><path class="cls-1" d="M951.74,618.69c-2.39-1.15-2.92-5.1-1.48-7.39a3.49,3.49,0,0,1,1.84-1.49,4.41,4.41,0,0,1,3.32.3,5,5,0,0,1,2.38,6.18A4.69,4.69,0,0,1,951.74,618.69Z"/><path class="cls-1" d="M845.68,297.27c.55,1.18-.21,3.36-.82,4.37-2.2,3.65-6.3-.21-7.24-2.87,0-.13-.09-.27-.13-.39C836.28,293.76,844.06,293.84,845.68,297.27Z"/><path class="cls-1" d="M1227.39,281.46c.18-.13,1.35-1.3,1.57-1.41,1.9-.95,4.5-.58,5.29,1.6.56,1.54.24,4.91-.57,6.05C1231.41,290.88,1223.53,284.29,1227.39,281.46Z"/><path class="cls-1" d="M510.05,363.4c1.28-.22,3.16,1.89,3.3,3.3.18,1.79-.65,4.13-2.4,4.84a3.13,3.13,0,0,1-.52.16C504.8,372.83,504.65,364.31,510.05,363.4Z"/><path class="cls-1" d="M872.13,646.77c2.89,1.06,7,3.73,7.28,6.1,1.09,8.85-1.92,8.26-7.72,9.16-2.9.45-6.46-4-6.53-7.56C865.11,651.06,869.37,645.76,872.13,646.77Z"/><path class="cls-1" d="M1113.41,490.19a28.58,28.58,0,0,1,4.11-6.76c.37-.51,1.68-.32,3.46-.59,1.8.89,4.48,1.74,6.49,3.41,1.25,1,1,3.7,2.23,4.92,2.18,2.24.54,4.44,0,6.18-.36,1.11-3.08,1.87-4.8,2-1.34.09-2.76-1.09-4.16-1.63a15,15,0,0,0-2.75-.83C1115,496.37,1112.4,493,1113.41,490.19Z"/><path class="cls-1" d="M1362.07,291c5,.77,7.63.26,6.68,7.93-.25,2.06-3.8,4.37-6.31,5.29s-6.08-3.72-6-6.67C1356.46,294.45,1359.55,290.63,1362.07,291Z"/><path class="cls-1" d="M978.26,512.82c.33.68.77,2.39.21,3-.85.66-3.2,1.28-3.79,0a7.93,7.93,0,0,1-.22-3.6C974.52,511.69,977.81,511.93,978.26,512.82Z"/><path class="cls-1" d="M859.84,504.38l.23,0c1.46.35,1.16,1.55.87,2.63a2.08,2.08,0,0,1-1.72,1.79c-2.15.25-2.72-.41-2.49-2.72C856.88,504.71,858.58,504.19,859.84,504.38Z"/><path class="cls-1" d="M675,607.33c-.85.25-2.78-.19-3.23-1s.36-2.85.9-3.44a.31.31,0,0,1,.25-.13,12.5,12.5,0,0,1,3.46.46C679.07,604.31,676.67,606.81,675,607.33Z"/><path class="cls-1" d="M560.34,270.66c-.69-2.68.84-4.67,3.52-3.19,1.91,1,1.15,2.59-.15,3.48S560.7,272,560.34,270.66Z"/><path class="cls-1" d="M1250.77,515.49a4.53,4.53,0,0,1-2.63-.08c-.88-.35-1.36-1.92-1.34-2.8a2.08,2.08,0,0,1,1.11-1.83,1.55,1.55,0,0,1,1.25,0,5.13,5.13,0,0,1,2.21,2.53C1251.62,513.88,1251.16,515.39,1250.77,515.49Z"/><path class="cls-1" d="M1382.42,306.74a2,2,0,0,1,1.07,1.53,2.63,2.63,0,0,1-2.06,2c-.44,0-3-.83-3.17-1.39C1379.09,306.56,1379.82,305.08,1382.42,306.74Z"/><path class="cls-1" d="M399.15,344.3c.75-.11,1.82,1.15,1.88,2a2.82,2.82,0,0,1-1.48,2.78,1.18,1.18,0,0,1-.31.08C395.94,349.71,396,344.74,399.15,344.3Z"/><path class="cls-1" d="M338.55,531a3,3,0,0,1-2.88.16c-1.45-.81-1.31-4.14.57-4.38a2.72,2.72,0,0,1,2.89,1.23,3.54,3.54,0,0,1,.39.94A1.79,1.79,0,0,1,338.55,531Z"/><path class="cls-1" d="M359,332.62c1.27-1.49,4.05-.13,4.51,1.46.63,1.48-.86,2.39-1.82,2.57a2.41,2.41,0,0,1-2.81-1A3.31,3.31,0,0,1,359,332.62Z"/><path class="cls-1" d="M1215.84,430c-.63-1.34-.3-3.06,1.32-3.42a2.15,2.15,0,0,1,2.81,1.68c.06,1,.42,1.64-.49,2.3C1218.07,431.6,1216.68,431.83,1215.84,430Z"/><path class="cls-1" d="M1487.08,304.38a2.08,2.08,0,0,1-.38-1.71c.52-1.84,4.3-2.25,4.82-.19a2.45,2.45,0,0,1-4.44,1.9Z"/><path class="cls-1" d="M1126.34,285.11a4.29,4.29,0,0,1-1.61,2.41c-.33.25-1.48-.23-2-.68a2,2,0,0,1-.58-1.73c.4-1.33,2.17-2.54,3.29-1.5A3.27,3.27,0,0,1,1126.34,285.11Z"/><path class="cls-1" d="M551.41,559.89c.44-.16,1.46.6,1.86,1.18,1.06,1.53.28,2.88-1.1,3.55-.57.28-1.66-.5-2.16-.67C548.94,561.6,549.28,560.63,551.41,559.89Z"/><path class="cls-1" d="M746.22,407a2,2,0,0,1,1.15,1.63c.12,1.58-1.69,3.32-3.4,2.63-1.12-.46-1.05-1.31-.84-2.26C743.47,407.54,744.37,406,746.22,407Z"/><path class="cls-1" d="M736,487.45c.6-.38,2.45-1.26,3.17-1a1.5,1.5,0,0,1,.89,1.09c.57,2.35-.62,4.53-2.31,4.5a3.23,3.23,0,0,1-2.86-2.77A2.24,2.24,0,0,1,736,487.45Z"/><path class="cls-1" d="M879.05,611.55a2.89,2.89,0,0,1,1.87.17,3.11,3.11,0,0,1,1.21.59c.81.75.35,3.68-.47,4.32a1.33,1.33,0,0,1-.48.22,2.93,2.93,0,0,1-2.76-1.26C877.91,614.78,878,611.91,879.05,611.55Z"/><path class="cls-1" d="M1102.34,629.37c.82.08,2.05,1.18,1.93,1.93-.53,3.15-5.5,3.06-4.85-.22a2.36,2.36,0,0,1,2.92-1.71Z"/></g></g><g id="Individual_large_stars" data-name="Individual large stars"><g id="Individual_large_stars-2" data-name="Individual large stars"><path class="cls-1" d="M826,71c2.84-5,2.28-11.11,1.61-16.8-.16-1.38-.08-3.18,1.23-3.64a2.19,2.19,0,0,1,2.36,1,8.31,8.31,0,0,1,1,2.54,20.5,20.5,0,0,0,17.72,14.42,39.17,39.17,0,0,0,5.73-.14c2.27-.16,1.27,1.26.19,2-1.39.89-2.87,1.36-4.22,2.56A24.49,24.49,0,0,0,845.06,82a21.9,21.9,0,0,0-1.44,8.17c0,2.38,1.07,6.19.26,8.3-1.45-.33-1.86-1.7-2.43-2.91a30.63,30.63,0,0,0-2-3.83,23.84,23.84,0,0,0-6.28-6.5,24.13,24.13,0,0,0-15.81-4.19c-1.6.15-3.73.15-4.2-1.39C818.3,78.31,823.36,75.63,826,71Z"/></g></g></g></g></svg>